<?xml version="1.0" encoding="utf-8"?>
<!-- Svg Vector Icons : http://www.onlinewebfonts.com/icon -->
<!DOCTYPE svg PUBLIC "-//W3C//DTD SVG 1.1//EN" "http://www.w3.org/Graphics/SVG/1.1/DTD/svg11.dtd">
<svg version="1.1" xmlns="http://www.w3.org/2000/svg" xmlns:xlink="http://www.w3.org/1999/xlink" x="0px" y="0px" viewBox="0 0 1000 1000" enable-background="new 0 0 1000 1000" xml:space="preserve">
<metadata> Svg Vector Icons : http://www.onlinewebfonts.com/icon </metadata>
<g><path d="M500,10C229.4,10,10,229.4,10,500c0,270.6,219.4,490,490,490c270.6,0,490-219.4,490-490C990,229.4,770.6,10,500,10z M340.7,576.6c-5.2,0-10.1-1.8-13.8-5.1c-3.7-3.3-5.8-7.7-5.8-12.4c0-4.7,2-9.2,5.7-12.5l51.3-46.5c3.7-3.4,8.6-5.2,13.9-5.2c5.2,0,10.1,1.8,13.8,5.1c3.7,3.3,5.8,7.7,5.8,12.5l0,0c0,4.7-2,9.1-5.7,12.5l-51.3,46.5C350.9,574.8,346,576.6,340.7,576.6z M384.9,613c-5.2,0-10.1-1.8-13.8-5.1c-3.7-3.3-5.8-7.7-5.8-12.5c0-4.7,2-9.1,5.7-12.5l51.3-46.5c3.7-3.4,8.6-5.2,13.9-5.2c5.2,0,10.1,1.8,13.8,5.1c3.7,3.3,5.8,7.7,5.8,12.5c0,4.7-2,9.1-5.7,12.5l-51.3,46.5C395.2,611.1,390.2,613,384.9,613z M428,648.7c-5.2,0-10.1-1.8-13.8-5.1c-3.7-3.3-5.8-7.7-5.8-12.5s2-9.1,5.7-12.5l51.3-46.5c3.7-3.4,8.7-5.2,13.9-5.2c5.2,0,10.1,1.8,13.8,5.1c7.7,6.9,7.7,18,0.1,24.9l-51.3,46.5C438.2,646.8,433.2,648.7,428,648.7z M485,679.3c-3.7,3.4-8.7,5.2-13.9,5.2c-5.2,0-10.1-1.8-13.8-5.1c-3.7-3.3-5.8-7.7-5.8-12.5c0-4.7,2-9.1,5.7-12.5l51.3-46.5c3.7-3.4,8.6-5.2,13.9-5.2c5.2,0,10.1,1.8,13.8,5.1l0,0c7.7,6.9,7.7,18,0.1,24.9L485,679.3z M540.3,689.3c-9,8.1-22.5,9-30.1,2.1l-7.4-6.7l32.4-29.4l7.6,6.8C550.4,669.1,549.2,681.2,540.3,689.3z M679.7,563.4c-9.2,8.2-22.8,9.3-30.4,2.4l-69-58.7l-6.7,6.4l-5.1,4.6l66.8,60.1c7.6,6.9,6.4,19.2-2.8,27.4c-4.6,4.1-10.4,6.5-16.3,6.9c-5.5,0.3-10.6-1.3-14.1-4.5l-68.2-61.5L522,557.1l67.2,62.6l0.1,0.1c3.6,3.2,5.3,7.7,4.9,12.7c-0.4,5.4-3.1,10.6-7.7,14.7c-4.6,4.1-10.4,6.5-16.3,6.9c-5.5,0.3-10.6-1.3-14.1-4.5l-7.3-6.6c13.6-12.9,13.4-33.3-0.7-45.8c-6.9-6.1-16-9.5-25.7-9.5c-2.4,0-4.7,0.2-7,0.6c1.2-9.6-2.3-19.6-10.5-26.9c-6.9-6.1-16-9.5-25.7-9.5c-2.3,0-4.6,0.2-6.8,0.6c0.1-1.2,0.2-2.4,0.2-3.7c0-8.8-3.9-17-10.8-23.1c-6.9-6.1-16-9.5-25.7-9.5c-2.8,0-5.5,0.3-8.2,0.8c0.2-1.5,0.3-3,0.3-4.5c0-8.7-3.9-17-10.8-23.1c-6.9-6.1-16-9.5-25.7-9.5c-9.8,0-19,3.4-25.8,9.7l-32.6,29.5l2.4-2.5c-9.2-7.2-34.6-28.3-42.3-40.1c-0.3-0.5-0.7-1.1-1.2-1.8c-32.8-48.6-27.5-95.2,15.4-134.7c30.6-28.3,65.7-32.5,89.7-31.1c31.8,1.9,57.5,14.1,69.7,23.9c4.1,3.3,11.1,9.3,20.8,17.8c-45.3,40.1-101.1,92.4-104.4,95.4l-5.6,5.2l5.6,5.2c1.5,1.4,37.5,34.7,77.9,34.7c1.6,0,3.2-0.1,4.8-0.2c3.3-0.1,37.3-2,64.1-25.2l40.4-33.7l57.3,53.7l-0.1,0.1l52.6,50.1l0.1,0.1C688.4,542.6,687.8,555.7,679.7,563.4z M728.8,420.9c-1.5,24.7-12.2,44.8-21,54.4c-6.4,7-23.5,23.6-32.6,32.4l-103.5-97l-52.6,43.9l-0.1,0.1c-22.8,19.8-53,21.1-53.3,21.1l-0.4,0c-1.2,0.1-2.4,0.1-3.7,0.1c-24.7,0-49-16.6-59.9-25.1c23.2-21.6,108.3-100.6,141-126.2c12.2-9.5,37-20.6,66.9-20.6h0c31.2,0,59.3,11.8,83.6,35.1C724.9,369.4,730,400.3,728.8,420.9z"/></g>
</svg>