<?xml version="1.0" encoding="utf-8"?>
<!-- Svg Vector Icons : http://www.onlinewebfonts.com/icon -->
<!DOCTYPE svg PUBLIC "-//W3C//DTD SVG 1.1//EN" "http://www.w3.org/Graphics/SVG/1.1/DTD/svg11.dtd">
<svg version="1.1" xmlns="http://www.w3.org/2000/svg" xmlns:xlink="http://www.w3.org/1999/xlink" x="0px" y="0px" viewBox="0 0 1000 1000" enable-background="new 0 0 1000 1000" xml:space="preserve">
<metadata> Svg Vector Icons : http://www.onlinewebfonts.com/icon </metadata>
<g><path d="M589.1,990H410.9c-24.8,0-44.9-20.2-44.9-45.1v-59.3c0-24.8,20.2-45,44.9-45h178.1c24.8,0,44.9,20.2,44.9,45v59.3C634,969.8,613.8,990,589.1,990z M410.9,871.3c-7.9,0-14.3,6.4-14.3,14.3V945c0,8,6.4,14.5,14.3,14.5h178.1c7.9,0,14.3-6.5,14.3-14.5v-59.3c0-7.9-6.4-14.3-14.3-14.3H410.9z"/><path d="M588.3,831.5H411.7c-24.7,0-44.7-20.1-44.7-44.8v-16.2c0-23.3-18.4-51.1-39.8-83.3c-32.3-48.7-72.5-109.4-72.5-190C254.8,362,364.8,252,500,252c135.2,0,245.2,110,245.2,245.2c0,82.2-40.3,142.6-72.8,191.2c-21.2,31.7-39.4,59.1-39.4,82.3v16C633,811.5,612.9,831.5,588.3,831.5z M500,282.7c-118.3,0-214.6,96.3-214.6,214.6c0,71.4,35.8,125.4,67.4,173.1c24.1,36.4,44.9,67.7,44.9,100.2v16.2c0,7.8,6.3,14.1,14.1,14.1h176.6c7.8,0,14.1-6.3,14.1-14.1v-16c0-32.5,20.7-63.5,44.6-99.3c31.7-47.5,67.6-101.3,67.6-174.2C714.6,378.9,618.3,282.7,500,282.7z"/><path d="M348.5,508.4c-8.5,0-15.3-6.9-15.3-15.3c0-90.7,74.7-164.5,166.6-164.5c8.5,0,15.3,6.9,15.3,15.3c0,8.5-6.9,15.3-15.3,15.3c-75,0-136,60.1-136,133.9C363.8,501.5,357,508.4,348.5,508.4z"/><path d="M500,159.3c-8.5,0-15.3-6.9-15.3-15.3V25.3c0-8.5,6.9-15.3,15.3-15.3s15.3,6.9,15.3,15.3V144C515.3,152.4,508.5,159.3,500,159.3z"/><path d="M974.7,515.3H856c-8.5,0-15.3-6.9-15.3-15.3s6.9-15.3,15.3-15.3h118.7c8.5,0,15.3,6.9,15.3,15.3S983.1,515.3,974.7,515.3z"/><path d="M144,515.3H25.3c-8.5,0-15.3-6.9-15.3-15.3s6.9-15.3,15.3-15.3H144c8.5,0,15.3,6.9,15.3,15.3S152.4,515.3,144,515.3z"/><path d="M835.6,851c-3.9,0-7.8-1.5-10.8-4.5l-83.9-83.9c-6-6-6-15.7,0-21.7c6-6,15.7-6,21.7,0l83.9,83.9c6,6,6,15.7,0,21.7C843.5,849.5,839.6,851,835.6,851z"/><path d="M248.3,263.6c-3.9,0-7.8-1.5-10.8-4.5l-83.9-83.9c-6-6-6-15.7,0-21.7c6-6,15.7-6,21.7,0l83.9,83.9c6,6,6,15.7,0,21.7C256.1,262.1,252.2,263.6,248.3,263.6z"/><path d="M164.3,851c-3.9,0-7.8-1.5-10.8-4.5c-6-6-6-15.7,0-21.7l83.9-83.9c6-6,15.7-6,21.7,0c6,6,6,15.7,0,21.7l-83.9,83.9C172.1,849.5,168.2,851,164.3,851z"/><path d="M751.7,263.6c-3.9,0-7.8-1.5-10.8-4.5c-6-6-6-15.7,0-21.7l83.9-83.9c6-6,15.7-6,21.7,0c6,6,6,15.7,0,21.7l-83.9,83.9C759.5,262.1,755.6,263.6,751.7,263.6z"/></g>
</svg>