<?xml version="1.0" encoding="utf-8"?>
<!-- Svg Vector Icons : http://www.onlinewebfonts.com/icon -->
<!DOCTYPE svg PUBLIC "-//W3C//DTD SVG 1.1//EN" "http://www.w3.org/Graphics/SVG/1.1/DTD/svg11.dtd">
<svg version="1.1" xmlns="http://www.w3.org/2000/svg" xmlns:xlink="http://www.w3.org/1999/xlink" x="0px" y="0px" viewBox="0 0 1000 1000" enable-background="new 0 0 1000 1000" xml:space="preserve">
<metadata> Svg Vector Icons : http://www.onlinewebfonts.com/icon </metadata>
<g><path d="M490.3,416.8c0.1-0.1,0.1-0.2,0.2-0.2c-0.2-1-0.4-1.8-0.4-2.4C490.1,415,490.2,415.9,490.3,416.8z M678.5,622.3C678.5,622.3,678.5,622.3,678.5,622.3c0,0-0.1,0-0.1-0.1C678.4,622.2,678.5,622.2,678.5,622.3z M683.3,622.9c-1.2-0.2-3.8,0.1-4.8-0.6C677.9,624.5,678.8,625.3,683.3,622.9z M500,10C229.4,10,10,229.4,10,500c0,270.6,219.4,490,490,490c270.6,0,490-219.4,490-490C990,229.4,770.6,10,500,10z M813,201.4c-16.9,0.5-28.6,0.5-42.2,9.9c-5.5,3.8-9.2,8.8-16.1,10.7c-6.2,1.8-12.9,0.2-19.1,2.3c-22.3,7.6-18.8,55.2-48.1,48c-13.8-3.4-23.5-19.7-30.4-30.3c-6.1-9.4-17.2-17.1-9.7-28.8c-3.4,0.9-7.1-0.1-10.5,0.5c4.7-10.3,20.5-9.4,23.1-14.7c6.5-13.2-18-14.6-24.9-16.4c8.4-8.9,12.6,3,20.9,1c7.9-2-4.2-12.4-9-13.6c-1.7-0.4-29.6,7.7-13.5-6.8c-20-12.7-39.9-25.4-59.9-38.2c-3.4,14.1,26.6,22.2,36.3,27.2c-1.5,5.9-10.6,14.4-17.6,11.9c-6.6-2.3-3.9-13.2-13.8-12.1c-7.1,16.4,14.9,11.6,17,21.7c2.3,11.5-8.3,6.6-12.4,6.4c-1,0-8.6-8-9-2c-0.5,7.1,12.2,4.3,13.1,11.5c-14.8,0.6-22.3-4.7-34.3-12.7c-14-9.3-21.2-8.5-38.4-8.5c5.1-2.1,12.2-3.7,16.6-7.1c2.4-1.9,11.8-11,12.4-13.1c2.7-8.8-0.1-8.1-8.6-13.9c-7.5-5.1-16.6-14.3-25.7-16.2c-32.9-6.6-10.2,29.7-35.2,34.7c0.4,0,0.9,0,1.3,0h-1.4c0.1,0,0.1,0,0.2,0c-5.8-0.2-16.6-1.6-20.3,1.4c-2.6,2.1-2.9,10.8-5.8,13.9c-5.2,5.6-13,6.7-19.3,10.7c-6.1,3.9-19.5,14-23.1,20.8c-13.2,25.2,29.7,33,46,40.4c7.4,3.3,28.8,7.9,32.8,13.4c5.4,7.5-4.6,14.5,6.6,19.7c3.6,1.7,11,2,14-1.5c5-5.6-2-6.9-3.2-13.4c-2.3-12.5,1.5-7.6,7.8-12.2c12.9-9.5,10-10.1,5.3-25.2c-2.1-7.1-10.3-26.7-3.1-31.9c9.3-6.8,29.1,3.7,36.3,4.5c8.3,1,13,12.5,17.5,17.2c3,3.1,8.4,9.8,13.6,9c8.3-1.1,4.8-8.4,9.7-11.8c13-9,16.4,3.2,21.5,15.4c4.9,11.5,9.5,15.7,18.1,23.1c4,3.4,21.6,15.6,20,23.2c-1.1,5.1-21.2,12.8-26.6,14.5c-19.7,6.2-56.5-10.2-60.5,21c7.6-2.8,29.3-20.6,35.8-12.2c3,3.8-2.3,9.4-1.1,13.1c3.7,11.4,12.5,7.4,21.6,5.6c-0.6,0.4-1.3,0.7-1.9,1c12.5-6.4,11.2-5.1,17-15.5c1.9-3.4,4.7-11.7,7.3-14.1c9.1-8.4,10.5-2.6,16.2,3.9c1.5,1.7,15.4,21.8,10.5,20.8c-16.2-3.3-31.8-2.8-45.3,6c-7.7,5.1-15.1,12-24.4,15.5c-2.2,0.8-18.7,2.4-16.7-0.4c2.8-4.1,12.6-6.8,16.5-11.2c-10.7-4.4-19.6,5.3-28,11c-8.9,4.2-11,12.1-18.6,19c-3.3,3-9.6,3.5-12.8,7.5c-3.2,3.8-3.5,9.9-6.5,13.5c-2.1,2.5-7.5,1-9.7,4.8c-2.8,5,2.6,9.7,1.4,13.3c-2.2,6.6-14.7,12.1-19.5,16.9c0.6-0.6,1.3-1.3,1.9-1.9c-4.8,5.1-10.9,8.8-14.7,14.6c1.7,8.3,7.2,27.9,5.6,32.5c-5,14.9-14.7-8.1-18.7-14c-13.6-20.4-40.6-6.7-59.1-5.1c-23.7,2.2-46.8,32.9-32.3,57.8c7,12,18.8,16.6,32.3,13.8c12-2.5,15.6-19.3,27-19.6c20.8-0.6,0.5,20.4-1.3,28.1c-1.7,7.1,2.6,7.8,9.9,9.6c5.4,1.3,13.1-2.3,17.8,0.8c3,2,2.8,12.6,6.9,9.3c-8,6.6-6.1,22.4,2.1,28.1c9.1,6.3,19.8,0.5,29.4,2.9c18,4.6,9.4-1.4,25.2-10.9c10.7-6.4,12.4,1.2,19.7,1.2c5,0,8.1-7.1,16.4-5.1c6.8,1.7,9.4,6.9,17.5,8.1c3.3,0.5,6.7-1.2,9.9-0.9c14.9,1.7,26.4,11.2,38.1,19.8c9.7,7.1,16.1,5.7,27.4,8.9c8.3,2.4,23.5,14.3,22.8,24.9c-0.1,1.9-7.4,11.3-8.6,15.6c2.1,1.5,16.8-1.8,21.2-2.1c-1.4,1.6-11.5,8.7-11.5,5c0,1.9,7.1,5.9,8.8,7.1c5.2-17,13.8-6,24.2-1.9c8.8,3.6,19.6,3.8,29,6c8,1.9,25.5,7.3,31.4,13.8c7.1,7.8,2.2,20.6-3.1,28.3c-6.9,10.2-17.2,14.1-21.5,26.2c-3.4,9.5-0.8,19.1-2.8,29.7c-2.6,14.3-4.7,9.3-13.9,18c-7.7,7.3-0.1,6.1-10.7,10.8c-10.6,4.7-19.9,3.3-27.3,14.9c0.3-0.7,0.5-1.5,0.7-2.2c-3.1,4.3-4.6,13.2-6.1,16.1c-3.7,7.4-8.8,12.1-14.6,18.3c-2.2,2.4-22.8,30.5-24,28.3c-1.5-2.9-17.8,2.9-18.6-1.2c0.6,3.5-0.2,2.3,3.9,4.4c-3.7,23.1-13.5,26.6-36.2,26.8c2,11.1-8.2,8.9-13,14.9c-2.8,3.5-4.1,13.3-6,17.8c-1.2,2.8-10.1,14.2-10.1,16.5c0,2.1,3,5.1,5.8,8c-16,3.2-32.4,5.4-48.9,6.7c3.1-3.9,3.9-7.3-6-7.8c2.7-7.2,8.9-11.3,11.5-18.3c1.2-3.3,0.2-4.6,1.3-7.8c3.6-11.2,2-7,0-15.7c-4.8-20.5,1.7-26,7.3-44.8c5.7-19.2,5.2-44.2,8.9-64.9c1.7-9.9,4.6-30.6,1.2-40c-3.9-10.6-21-18.9-28.8-26c-11.1-10.1-17-21-25.2-33.5c-4.2-6.3-8.9-12.5-12.2-19.4c-7-14.7,0-6,1.2-14.7c1.1-8.4-1-15.9,2.3-24.7c3.7-9.7,12.9-15.8,15.9-25.7c2.7-8.7,0.6-19.7-8.3-22.7c-5-1.6-10.5,2.1-15.6,1.3c-7-1.1-15-6.4-20.5-10.6c-7.7-5.9-10.6-15.4-18.8-20.9c-6.8-4.6-11.7-1.9-19.1-4c-7.6-2.3-12.4-11.7-18.5-14.6c-9.3-4.4-14.5,1.9-24.2,0.6c-8.3-1.1-21-10.3-28.7-13.8c-15.8-7.1-25.4-14.9-31.7-30.9c-5.4-13.7-13.3-20.1-22.6-31.6c-9.4-11.6-12.3-21.5-26.8-24.6c-1.7-0.4,3.5,12.2,4.1,13.2c5.2,9.6,13,18.3,19.2,27.3c9.2,13.2,5.3,15.6-4.1,2.9c-10.7-14.5-23.1-29-32.4-44.4c-3.5-5.8-2.8-9.6-8.6-15.1c-5.6-5.3-12.9-7.9-18.6-13c-20.3-18.2-24-42.6-21.6-68.5c0.8-8.5,3.8-15.2,2.5-23.4c-1.1-6.8-5.1-12.4-10.1-17.3c-1.6-2.6-5.6-8.9-5.9-9.3c-4.6-7.6-8.2-15.2-15.5-21.4c-4.2-3.6-15-12.1-25.3-19.1c45.9-57.3,106-102.6,174.9-130.8c0.5,3.5,2,6.9,4.3,10.2c5.7,8.4,11.1,7.7,22.1,10.1c-1.2,12.8-16.2,12.9-26.3,11.6c-12.1-1.7-24.9-5.7-35.4,4.9c5.8,3.5,21.7,17.1,19.6,2.9c11.6-0.6,22.8-0.9,34.2,0.5c4.5,0.6,19.8,5.7,23.9,3.3c1.7-1,3.6-9.5,5.4-12.2c-3.2,0-6.7-1.6-9.9-1.3c7.5-9.6,15-2.1,24.6,2.3c-10.6,6.4-4.3,21.8,6,9.3c8.5-10.3-2.1-17.7-12.8-23.7c10.8-13.6,17.5-14.8,27.7,0.5c1.7-9.4,9.3-5.7,17.3-5v-2.4c-3.5,0.1-7.2-1.9-10.7-1.6c8.1-12.9,2.9-15.9,14.5-20.1c9.2-3.4,35.6-0.2,38.8-8.9c-18.4,3.6-40.7,4.4-57.3,12.8c-7.2,3.6-15.7,15-22.9,7.6c-7.3-7.6,5.2-19.8,11.7-23.6h-1.5c29.2-6.2,59.4-9.5,90.4-9.5c20,0,39.7,1.5,59,4.1c-6.7,3.5-1.7,5.9-6.6,9.5c-9.3,6.8-25.8,12.5-36.9,16.9c14.1,0,48.1,13.2,54.7-6.5c-4.5-0.7-9.1-1.4-13.6-2.1c8.5-5.6,17.9-10.2,27.9-13.5c89.6,17.7,169.2,63.2,229.8,126.9C813.8,201.4,813.4,201.4,813,201.4z M892.3,373.4c0.8-1.7,2.7-2.3,3.5-3.7c1.6-3,1.3-5,3.3-7.6c2.2-2.8,5.1-3.5,7.5-5.6c1-0.9,1.5-1.7,1.9-2.5c7.2,20.2,13,41,17.2,62.4c-0.1,0.2-0.2,0.4-0.3,0.5c-1.1,0.8-7.9,1.9-9.3,1.9c-5,0.2-8.7-3.1-12.2-6.2c-3.6-3.2-7.9-7.4-10.5-11.5c-2.8-4.4-1.1-8.8-0.9-13.8C892.6,383.2,890.5,377.2,892.3,373.4z M897.9,598.1c-8.4-7.3-18.4-17.1-24.3-26.6c-6.4-10.1-2.5-20.5-2-32.1c0.4-9.7-4.4-23.6-0.2-32.3c1.9-4,6.3-5.3,8.1-8.6c3.8-6.9,2.9-11.6,7.6-17.6c5-6.4,11.7-8,17.3-13c5.9-5.3,5.7-9.4,9.4-16.2c2.7-4.9,9.1-13.2,15.1-17.5c3.2,21.4,5,43.4,5,65.7c0,38.6-5.1,76-14.6,111.7C911.1,609.6,904.4,603.7,897.9,598.1z"/></g>
</svg>