<?xml version="1.0" encoding="utf-8"?>
<!-- Svg Vector Icons : http://www.onlinewebfonts.com/icon -->
<!DOCTYPE svg PUBLIC "-//W3C//DTD SVG 1.1//EN" "http://www.w3.org/Graphics/SVG/1.1/DTD/svg11.dtd">
<svg version="1.1" xmlns="http://www.w3.org/2000/svg" xmlns:xlink="http://www.w3.org/1999/xlink" x="0px" y="0px" viewBox="0 0 1000 1000" enable-background="new 0 0 1000 1000" xml:space="preserve">
<metadata> Svg Vector Icons : http://www.onlinewebfonts.com/icon </metadata>
<g><g transform="translate(0.000000,511.000000) scale(0.100000,-0.100000)"><path d="M4509,4524.1l-480.8-480.8h323.3h321.2v-491v-491H5000h327.3v491v491h321.2h323.3L5491,4524.1c-263.9,263.9-484.9,480.8-491,480.8S4772.9,4788,4509,4524.1z"/><path d="M1399.2,3026.5v-691.5l231.2,231.2l229.1,229.1l337.6-337.6c186.2-186.2,345.8-337.6,358-337.6c12.3,0,120.7,98.2,241.4,221l218.9,218.9l-347.8,347.8l-347.8,347.8l229.1,229.2l231.2,231.2h-691.5h-689.5V3026.5z"/><path d="M7451,3484.8l229.1-229.2L7342.6,2918c-186.2-186.2-337.6-345.8-337.6-358s98.2-120.7,221-241.4l218.9-218.9l347.8,347.8l347.8,347.8l229.2-229.1l231.2-231.2v691.5v689.5h-689.5h-691.5L7451,3484.8z"/><path d="M3860.4,1756c-622-356-1131.4-652.7-1131.4-658.8c0-6.1,511.5-302.8,1135.5-660.8L5000-212.2l1135.5,648.6c624,358,1135.5,654.7,1135.5,660.8c0,10.2-2262.8,1311.4-2275.1,1307.3C4991.8,2404.5,4480.3,2111.9,3860.4,1756z"/><path d="M580.8,595.9L100,115.1l486.9-486.9l484.9-484.9v323.3v321.2h491h491v327.4v327.3h-491h-489l-6.1,317.1l-6.1,317.1L580.8,595.9z"/><path d="M8928.2,763.7V442.5h-491h-491V115.1v-327.4h491h491v-321.2v-323.3l484.9,486.9L9900,115.1L9413.1,600l-484.9,486.9V763.7z"/><path d="M3001.1,282.9C2851.8,197,2729,121.3,2729,115.1c0-6.1,511.5-302.8,1135.5-660.8L5000-1194.3l1135.5,648.6C6759.5-187.7,7271,109,7271,115.1c0,6.1-124.8,81.8-276.2,169.8l-276.2,157.5l-859.3-491l-859.3-491l-859.3,491c-472.6,270.1-861.3,491-863.4,489C3273.2,440.4,3148.4,368.8,3001.1,282.9z"/><path d="M3001.1-699.2C2851.8-785.1,2729-860.8,2729-866.9s511.5-302.8,1135.5-660.8L5000-2176.3l1135.5,648.6c624,358,1135.5,654.7,1135.5,660.8s-124.8,81.8-276.2,169.8l-276.2,157.5l-859.3-491l-859.3-491l-859.3,491c-472.6,270.1-861.3,491-863.4,489C3273.2-541.6,3148.4-613.2,3001.1-699.2z"/><path d="M2207.3-2217.2L1859.5-2565l-229.1,229.2l-231.2,231.2v-691.5v-689.5h689.5h691.5L2549-3254.5l-229.1,229.1l337.6,337.6c186.2,186.2,337.6,345.8,337.6,358s-98.2,120.7-221,241.4l-218.9,218.9L2207.3-2217.2z"/><path d="M7203.5-2110.8l-218.9-218.9l347.8-347.8l347.8-347.8L7451-3254.5l-231.2-231.2h691.5h689.5v689.5v691.5l-231.2-231.2L8140.5-2565l-337.6,337.6c-186.2,186.2-345.8,337.6-358,337.6S7324.2-1988.1,7203.5-2110.8z"/><path d="M4672.7-3322.1v-491h-321.2h-323.3l486.9-484.9l484.9-486.9l484.9,486.9l486.9,484.9h-323.3h-321.2v491v491H5000h-327.3V-3322.1z"/></g></g>
</svg>