<?xml version="1.0" encoding="utf-8"?>
<!-- Svg Vector Icons : http://www.onlinewebfonts.com/icon -->
<!DOCTYPE svg PUBLIC "-//W3C//DTD SVG 1.1//EN" "http://www.w3.org/Graphics/SVG/1.1/DTD/svg11.dtd">
<svg version="1.1" xmlns="http://www.w3.org/2000/svg" xmlns:xlink="http://www.w3.org/1999/xlink" x="0px" y="0px" viewBox="0 0 1000 1000" enable-background="new 0 0 1000 1000" xml:space="preserve">
<metadata> Svg Vector Icons : http://www.onlinewebfonts.com/icon </metadata>
<g><g transform="translate(0.000000,511.000000) scale(0.100000,-0.100000)"><path d="M100,1014.6v-3992.6h998.1h998.1v90.7v90.7h-907.4H281.5v3811.1v3811.1h3811.1h3811.1v-907.4v-907.4h907.4h907.4V107.2v-2903.7h-907.4h-907.4v-90.7v-90.7h998.2H9900V12v2987.7L8895,4004.6L7892.4,5007.2H3995H100V1014.6z M8777.1,3873l680.6-680.6h-687.4h-685.1V3873c0,374.3,2.3,680.6,6.8,680.6C8094.3,4553.5,8402.8,4247.3,8777.1,3873z"/><path d="M1370.4,3646.1v-90.7H2913h1542.6v90.7v90.7H2913H1370.4V3646.1z"/><path d="M1370.4,3101.7v-90.7H2913h1542.6v90.7v90.7H2913H1370.4V3101.7z"/><path d="M6474.5,2961c-74.9-38.6-115.7-79.4-152-154.3c-65.8-129.3-65.8-192.8,6.8-331.2l56.7-111.2L6039,1668c-190.5-385.6-353.9-698.7-360.7-698.7c-9.1,0-208.7,111.2-442.4,245c-424.2,242.7-428.8,245-422,315.3c11.3,106.6-70.3,270-158.8,324.4c-113.4,68.1-208.7,79.4-324.4,34c-186-70.3-274.5-256.3-211-435.6l36.3-102.1l-487.7-560.3c-270-306.3-496.8-560.3-505.9-564.9c-9.1-4.5-167.9,54.4-353.9,129.3l-338,133.8l-15.9,90.7c-45.4,263.1-256.3,399.3-480.9,313.1c-122.5-47.6-163.3-90.7-215.5-231.4l-43.1-108.9l-347.1-111.2c-192.8-61.3-351.6-113.4-353.9-115.7c-2.3-2.3,6.8-40.8,18.2-83.9l25-81.7L1418,275.1l358.4,113.4l47.6-59c61.3-79.4,224.6-140.6,326.7-122.5c40.8,9.1,113.4,38.6,158.8,70.3l79.4,54.4L2781.4,173c213.2-86.2,401.5-156.5,415.1-156.5s265.4,274.5,558.1,610.2c365.2,419.7,542.2,608,564.9,598.9c106.6-36.3,197.4-29.5,299.4,22.7l108.9,54.5l492.3-281.3c272.2-156.5,505.9-288.1,521.8-294.9c18.1-6.8,170.1,276.8,419.7,773.6c372,744.1,394.7,784.9,453.7,784.9c99.8,0,240.4,68.1,299.4,142.9l54.4,68.1l725.9-147.5c778.1-158.8,753.1-158.8,753.1-29.5c0,61.3,68.1,43.1-832.5,220c-601.2,118-619.3,122.5-630.6,176.9c-24.9,108.9-102.1,206.4-199.6,249.5C6660.6,3022.3,6597.1,3022.3,6474.5,2961z M6758.1,2772.7c36.3-34,56.7-81.7,56.7-124.8c0-43.1-20.4-90.7-56.7-124.8c-34-36.3-81.7-56.7-124.8-56.7c-43.1,0-90.7,20.4-124.8,56.7c-36.3,34-56.7,81.7-56.7,124.8c0,43.1,20.4,90.7,56.7,124.8c34,36.3,81.7,56.7,124.8,56.7C6676.4,2829.5,6724.1,2809,6758.1,2772.7z M4580.3,1683.9c113.4-111.2,34-306.3-124.8-306.3c-93,0-181.5,88.5-181.5,181.5s88.5,181.5,181.5,181.5C4498.7,1740.6,4546.3,1720.2,4580.3,1683.9z M2221.1,685.7c113.4-111.2,34-306.3-124.8-306.3c-93,0-181.5,88.5-181.5,181.5c0,93,88.5,181.5,181.5,181.5C2139.4,742.4,2187,722,2221.1,685.7z"/><path d="M1370.4,2557.2v-90.7H2187h816.7v90.7v90.7H2187h-816.7V2557.2z"/><path d="M6633.3-165v-1905.5h363h363V-165v1905.6h-363h-363V-165z M7177.8-165v-1724.1h-181.5h-181.5V-165v1724.1h181.5h181.5V-165z"/><path d="M4092.6-800.2v-1270.4h363h363v1270.4V470.2h-363h-363V-800.2z M4637-800.2v-1088.9h-181.5h-181.5v1088.9V288.7h181.5H4637V-800.2z"/><path d="M5363-1163.1v-907.4h363h363v907.4v907.4h-363h-363V-1163.1z M5907.4-1163.1v-725.9h-181.5h-181.5v725.9v725.9h181.5h181.5V-1163.1z"/><path d="M2822.2-1344.6v-725.9h363h363v725.9v725.9h-363h-363V-1344.6z M3366.7-1344.6v-544.4h-181.5h-181.5v544.4v544.5h181.5h181.5V-1344.6z"/><path d="M1663-829.7c-260.9-97.5-421.9-301.7-462.8-587.6l-15.9-108.9h90.7h88.5l15.9,111.2c18.2,142.9,131.6,313,251.8,381.1c231.4,129.3,512.7,0,614.8-281.3c22.7-68.1,29.5-335.7,31.8-1236.3v-1152.4h86.2h86.2l27.2-165.6c40.8-238.2,136.1-424.2,306.3-592.1c338-338,816.7-419.7,1240.9-213.2c174.7,83.9,392.5,292.6,483.2,465C4575.8-4080.4,4637-3840,4637-3688c0,95.3,0,95.3,118,131.6c149.7,43.1,340.3,43.1,490,0l118-36.3l2.3-118c4.5-519.5,401.5-977.7,923.3-1061.7c576.2-93,1136.5,315.3,1231.8,898.3l27.2,170.1h86.2h88.5v1152.4c2.3,900.6,9.1,1168.3,31.8,1236.3c102.1,281.3,383.4,410.6,614.8,281.3c120.2-68.1,233.7-238.2,251.8-381.1l15.9-111.2h88.5h90.7l-15.9,108.9c-18.1,129.3-97.5,308.5-176.9,401.5c-172.4,204.2-483.2,265.4-714.6,136.1c-145.2-79.4-217.8-161.1-297.2-328.9l-59-124.8l-6.8-1100.2l-9.1-1100.2l-52.2,154.3c-176.9,519.5-680.5,832.6-1195.5,746.3c-387.9-65.8-741.8-356.2-855.2-701l-31.7-93l-93,34c-127,49.9-492.3,49.9-617,2.3l-93-36.3l-31.8,93c-45.4,138.4-179.2,331.2-304,442.4c-587.5,517.2-1488.1,265.4-1746.8-487.7l-52.2-154.3l-9.1,1100.2l-6.8,1100.2l-59,124.8c-79.4,167.9-152,251.8-290.4,326.7C1960.2-807,1781-786.6,1663-829.7z M3922.5-2875.9c446.9-213.2,642-710,465-1179.6c-72.6-188.3-297.2-412.9-487.7-490c-190.6-74.9-510.4-74.9-698.7,0c-183.8,72.6-381.1,260.9-474.1,453.7c-70.3,140.6-74.9,165.6-74.9,387.9c0,222.3,4.5,247.3,72.6,387.9c118,238.2,351.6,431,608,499.1c38.6,11.3,154.3,15.9,260.9,11.3C3750-2812.4,3813.6-2826,3922.5-2875.9z M6803.5-2864.5c190.6-72.6,415.1-297.2,487.7-487.7c290.4-766.8-424.2-1481.3-1191-1191c-188.3,72.6-412.9,297.2-490,487.7c-74.9,190.6-74.9,510.4,0,698.7c95.3,240.5,363,474.1,621.6,539.9C6361.1-2782.9,6656-2807.8,6803.5-2864.5z"/><path d="M4480.5-2835c113.4-152,81.7-142.9,519.5-142.9c387.9,0,401.5,2.3,444.6,52.2c124.8,140.7,161.1,129.3-444.6,129.3C4480.5-2796.5,4451-2798.7,4480.5-2835z"/></g></g>
</svg>