<?xml version="1.0" encoding="utf-8"?>
<!-- Svg Vector Icons : http://www.onlinewebfonts.com/icon -->
<!DOCTYPE svg PUBLIC "-//W3C//DTD SVG 1.1//EN" "http://www.w3.org/Graphics/SVG/1.1/DTD/svg11.dtd">
<svg version="1.1" xmlns="http://www.w3.org/2000/svg" xmlns:xlink="http://www.w3.org/1999/xlink" x="0px" y="0px" viewBox="0 0 1000 1000" enable-background="new 0 0 1000 1000" xml:space="preserve">
<metadata> Svg Vector Icons : http://www.onlinewebfonts.com/icon </metadata>
<g><g transform="translate(0.000000,512.000000) scale(0.100000,-0.100000)"><path d="M4839.2,5004.9c-220.1-55.5-428.7-233.5-534-455.5l-61.3-128.2l-5.7-478.5l-7.7-478.5l-72.7-95.7c-38.3-51.7-82.3-114.8-93.8-137.8l-23-44H2266.7c-1743.7,0-1776.3-1.9-1860.5-40.2c-47.9-21.1-114.8-67-151.2-99.5c-80.4-76.6-155-231.6-155-319.6c1.9-143.6,124.4-325.4,277.5-407.7c68.9-38.3,111-42.1,436.4-47.9l357.9-7.7v155v155H827.3c-319.7,0-346.4,1.9-382.8,38.3c-24.9,24.9-38.3,63.2-38.3,114.8c0,51.7,13.4,90,38.3,114.8c38.3,38.3,63.2,38.3,1764.8,38.3h1728.4v-153.1v-153.1h-922.6h-924.5v-153.1v-153.1h976.2h974.3l23-42.1c11.5-24.9,55.5-88,95.7-141.6l74.6-97.6V-934.4v-2922.8H5000h765.6v2918.9v2919l99.5,143.6l99.5,143.6H6937h972.3v153.1v153.1h-922.6h-924.5v153.1v153.1h1728.4c1701.6,0,1726.5,0,1764.8-38.3c51.7-51.7,51.7-178,0-229.7c-36.4-36.4-63.2-38.3-382.8-38.3h-344.5v-153.1v-153.1h327.3c197.2,0,357.9,9.6,403.9,23c105.3,30.6,241.2,158.9,294.8,273.7c51.7,107.2,55.5,170.3,23,285.2c-30.6,105.3-208.6,283.3-313.9,313.9c-59.3,17.2-518.7,23-1841.3,23H5958.9l-22.9,44c-11.5,23-55.5,86.1-93.8,137.8l-72.7,95.7l-7.7,478.5l-5.7,478.5l-61.3,128.2c-126.3,268-379,447.9-647,465.1C4973.2,5018.3,4881.3,5014.5,4839.2,5004.9z M5162.7,4696.7c47.9-13.4,111-55.5,164.6-111c55.5-53.6,97.6-116.8,111-164.6c11.5-42.1,21-224,21-403.9V3688l-128.2,49.8c-109.1,40.2-162.7,47.9-331.1,47.9c-168.4,0-222-7.7-329.2-47.9l-130.2-49.8v329.2c0,179.9,9.6,361.8,21.1,402c26.8,95.7,158.9,235.4,256.5,269.9C4912,4721.6,5059.3,4725.5,5162.7,4696.7z M5250.7,3454.5c313.9-99.5,514.9-382.8,514.9-727.3c0-440.2-325.4-765.6-765.6-765.6s-765.6,325.4-765.6,765.6C4234.4,3263.1,4730.1,3619.1,5250.7,3454.5z M5000,1668.7c168.4,0,222,7.7,331.1,47.9l128.2,49.8V-892.3V-3551H5000h-459.4v2658.6v2658.6l130.2-49.8C4778,1676.4,4831.6,1668.7,5000,1668.7z"/><path d="M4846.9,4258.4v-153.1H5000h153.1v153.1v153.1H5000h-153.1V4258.4z"/><path d="M4846.9-1866.6v-153.1H5000h153.1v153.1v153.1H5000h-153.1V-1866.6z"/><path d="M4846.9-2479.1v-153.1H5000h153.1v153.1v153.1H5000h-153.1V-2479.1z"/><path d="M4846.9-3091.6v-153.1H5000h153.1v153.1v153.1H5000h-153.1V-3091.6z"/><path d="M1547,2549.2c-19.1-13.4-304.3-631.6-633.6-1374.3L314.4-172.6l-107.2-5.7L100-184.1v-128.2c5.7-909.2,830.7-1653.8,1703.5-1538.9c769.5,103.4,1355.2,765.6,1359,1538.9v128.2l-107.2,5.7l-109.1,5.7L2349,1174.9c-329.2,742.7-614.4,1360.9-633.6,1374.3C1671.4,2581.7,1591.1,2581.7,1547,2549.2z M2130.8,931.8l488.1-1104.4l-493.8-5.7c-271.8-1.9-715.9-1.9-987.6,0l-495.8,5.7l490,1104.4c269.9,608.7,493.8,1104.4,499.6,1104.4S1860.9,1540.5,2130.8,931.8z M2835.2-578.4c-45.9-243.1-155-449.8-333-629.7c-468.9-470.9-1272.9-470.9-1741.8,0c-181.8,181.8-277.5,369.4-342.6,668l-11.5,51.7h1223.1h1221.2L2835.2-578.4z"/><path d="M8269.2,2531.9c-21.1-24.9-304.3-643.1-627.8-1374.3L7051.9-172.6l-107.2-5.7l-107.2-5.7v-128.2c5.7-909.2,830.7-1653.8,1703.5-1538.9c769.5,103.4,1355.2,765.6,1359,1538.9v128.2l-107.2,5.7l-109.1,5.7l-597.2,1347.5c-329.2,742.7-614.4,1360.9-633.5,1374.3C8399.4,2587.5,8315.2,2579.8,8269.2,2531.9z M8868.3,931.8l488.1-1104.4l-493.8-5.7c-271.8-1.9-715.8-1.9-987.7,0l-495.7,5.7l490,1104.4c269.9,608.7,493.8,1104.4,499.6,1104.4S8598.4,1540.5,8868.3,931.8z M9572.7-578.4c-68.9-367.5-306.3-685.2-631.6-846c-750.3-369.4-1627,47.9-1776.3,846l-15.3,90h1219.3H9588L9572.7-578.4z"/><path d="M1449.4-3570.1c-210.5-42.1-407.7-149.3-564.6-306.3c-199.1-199.1-302.4-432.6-319.7-721.6l-11.5-178H5000h4446.4l-11.5,178c-17.2,289-120.6,522.5-319.6,721.6c-124.4,124.4-233.5,195.2-419.2,266.1l-126.3,49.8l-1248,5.7l-1249.9,5.7v-155v-153.1h1213.5c1161.8,0,1219.2-1.9,1334.1-38.3c147.4-45.9,281.4-141.7,371.3-264.1c61.3-84.2,124.4-227.8,124.4-285.2c0-21-715.9-24.9-4115.2-24.9c-3399.4,0-4115.2,3.8-4115.2,24.9c0,57.4,63.2,201,124.4,285.2c90,122.5,224,218.2,371.3,264.1c114.8,36.4,172.3,38.3,1334.1,38.3h1213.5v153.1v153.1l-1200.1-1.9C2065.7-3554.8,1491.5-3562.4,1449.4-3570.1z"/></g></g>
</svg>