<?xml version="1.0" encoding="utf-8"?>
<!-- Svg Vector Icons : http://www.onlinewebfonts.com/icon -->
<!DOCTYPE svg PUBLIC "-//W3C//DTD SVG 1.1//EN" "http://www.w3.org/Graphics/SVG/1.1/DTD/svg11.dtd">
<svg version="1.1" xmlns="http://www.w3.org/2000/svg" xmlns:xlink="http://www.w3.org/1999/xlink" x="0px" y="0px" viewBox="0 0 1000 1000" enable-background="new 0 0 1000 1000" xml:space="preserve">
<metadata> Svg Vector Icons : http://www.onlinewebfonts.com/icon </metadata>
<g><path d="M696,598c-80.3,0-149.2,48.5-179.5,117.6l0,0H304v39.2h200l0,0c-2.6,12.7-4,25.8-4,39.2s1.4,26.5,4,39.2l0,0H186.4V88.4H500V206h156.8v396C669.5,599.4,682.6,598,696,598s26.5,1.4,39.2,4V153.7L552.8,10H108v901.6h432.1C575.9,959,632.1,990,696,990c108.2,0,196-87.8,196-196S804.2,598,696,598z M513.9,722.5c-3.9,10-7.4,20.2-9.6,31C506.6,742.7,510,732.5,513.9,722.5z M517.6,874.2c3.3,7.3,7.2,14.1,11.3,20.9C524.7,888.4,520.9,881.5,517.6,874.2z M504.4,834.7c2.2,10.2,5.4,19.8,9.1,29.3C509.7,854.5,506.5,844.8,504.4,834.7z M735.2,754.8v117.6h-78.4V754.8h-39.2l78.4-77.3l78.4,77.3H735.2z"/><path d="M225.6,245.2h39.2v39.2h-39.2V245.2z"/><path d="M304,245.2h274.4v39.2H304V245.2z"/><path d="M225.6,362.8h39.2V402h-39.2V362.8z"/><path d="M304,362.8h274.4V402H304V362.8z"/><path d="M225.6,480.4h39.2v39.2h-39.2V480.4z"/><path d="M304,480.4h274.4v39.2H304V480.4z"/><path d="M225.6,598h39.2v39.2h-39.2V598z"/><path d="M304,598h274.4v39.2H304V598z"/><path d="M225.6,715.6h39.2v39.2h-39.2V715.6z"/></g>
</svg>