<svg id="svg" version="1.1" xmlns="http://www.w3.org/2000/svg" xmlns:xlink="http://www.w3.org/1999/xlink" width="400" height="394.64285714285717" viewBox="0, 0, 400,394.64285714285717"><g id="svgg"><path id="path0" d="M194.867 84.875 C 194.215 85.053,192.526 85.219,191.113 85.244 C 189.700 85.270,187.926 85.468,187.171 85.685 C 186.416 85.902,183.663 86.455,181.053 86.915 C 178.443 87.375,175.971 87.929,175.560 88.145 C 175.149 88.362,173.372 88.943,171.611 89.437 C 160.168 92.649,145.360 101.424,135.104 111.072 C 126.502 119.163,116.669 134.643,114.284 143.849 C 113.939 145.177,113.429 146.715,113.148 147.268 C 112.868 147.820,112.344 150.316,111.984 152.813 C 111.623 155.311,111.144 158.065,110.918 158.934 C 109.380 164.867,109.195 192.927,110.679 195.328 C 110.835 195.581,111.326 197.979,111.769 200.658 C 112.212 203.336,112.759 206.061,112.985 206.713 C 113.210 207.364,113.810 209.319,114.316 211.056 C 115.621 215.531,118.351 222.361,120.550 226.654 C 127.009 239.265,141.764 256.503,148.271 259.040 C 148.706 259.209,150.089 259.971,151.344 260.731 C 157.391 264.396,169.887 268.503,175.005 268.508 C 175.809 268.509,177.490 268.776,178.741 269.102 C 181.389 269.791,190.863 269.921,192.523 269.290 C 193.107 269.067,195.385 268.708,197.583 268.491 C 203.773 267.880,205.317 267.520,214.808 264.475 C 226.228 260.809,236.818 254.417,244.427 246.594 C 251.018 239.819,253.960 235.648,258.773 226.259 C 262.216 219.542,263.174 217.083,265.387 209.279 C 265.811 207.784,266.801 199.289,267.182 193.880 C 268.722 171.995,253.352 146.872,231.787 136.023 C 226.208 133.217,215.890 129.944,212.544 129.920 C 211.246 129.911,208.239 129.500,202.115 128.496 C 197.747 127.780,193.451 127.786,189.175 128.514 C 187.310 128.831,184.274 129.297,182.428 129.547 C 152.216 133.655,133.061 160.819,139.152 190.918 C 143.118 210.518,156.382 231.453,168.298 236.923 C 169.229 237.350,170.257 237.867,170.582 238.071 C 192.048 251.528,222.155 235.719,233.683 204.936 C 239.492 189.424,233.558 175.772,217.710 168.185 C 215.455 167.105,212.768 166.051,211.741 165.842 C 210.713 165.633,208.450 165.159,206.713 164.789 C 202.395 163.869,193.898 163.649,191.314 164.389 C 190.227 164.701,187.754 165.261,185.817 165.635 C 183.881 166.009,182.015 166.467,181.671 166.654 C 181.328 166.840,179.269 167.699,177.098 168.562 C 173.498 169.993,168.464 172.116,165.132 173.609 C 158.891 176.405,158.109 176.067,159.724 171.268 C 160.977 167.543,161.350 166.754,163.784 162.685 C 167.201 156.973,172.176 153.146,177.887 151.835 C 179.408 151.486,181.540 150.897,182.626 150.526 C 185.529 149.535,207.393 149.520,210.069 150.508 C 211.046 150.868,212.544 151.282,213.397 151.427 C 225.578 153.498,242.027 168.383,244.206 179.307 C 244.354 180.046,244.863 181.895,245.337 183.416 C 246.341 186.632,246.592 200.893,245.699 203.949 C 245.445 204.817,244.898 206.799,244.483 208.352 C 239.986 225.192,223.606 240.795,204.738 246.210 C 203.001 246.709,200.602 247.418,199.408 247.785 C 194.128 249.409,173.552 248.989,169.572 247.176 C 168.631 246.747,167.707 246.397,167.518 246.397 C 167.329 246.397,165.587 245.573,163.646 244.567 C 155.148 240.159,148.908 234.424,142.930 225.528 C 136.842 216.467,133.559 207.874,130.838 193.880 C 129.834 188.717,129.819 176.527,130.808 170.385 C 131.193 167.996,131.687 164.805,131.907 163.295 C 132.126 161.784,132.567 159.740,132.887 158.754 C 133.207 157.767,133.805 155.627,134.217 153.998 C 135.045 150.723,137.045 144.754,137.725 143.530 C 137.965 143.098,139.061 140.904,140.160 138.655 C 148.007 122.597,159.318 114.804,187.759 105.857 C 189.279 105.379,192.122 104.742,194.077 104.443 C 196.032 104.144,198.164 103.725,198.815 103.512 C 206.429 101.024,219.491 103.445,239.684 111.086 C 243.422 112.501,252.986 117.157,255.293 118.685 C 256.385 119.408,257.637 120.142,258.075 120.316 C 267.408 124.017,284.367 141.043,290.642 153.011 C 291.440 154.531,293.271 157.863,294.713 160.415 C 296.155 162.967,297.335 165.163,297.335 165.295 C 297.335 165.426,297.852 166.625,298.485 167.959 C 300.031 171.222,302.311 177.170,302.668 178.875 C 302.828 179.635,303.191 180.714,303.477 181.273 C 303.762 181.832,304.282 183.815,304.631 185.679 C 304.980 187.542,305.442 189.661,305.657 190.388 C 310.389 206.382,304.847 232.789,293.463 248.487 C 291.540 251.138,289.023 254.640,287.869 256.269 C 279.146 268.579,266.066 281.178,256.269 286.706 C 251.085 289.631,243.046 293.386,241.969 293.386 C 241.775 293.386,240.870 293.725,239.959 294.140 C 239.048 294.555,237.218 295.175,235.893 295.518 C 234.568 295.861,232.880 296.391,232.142 296.697 C 231.404 297.002,229.543 297.445,228.007 297.681 C 226.472 297.917,224.428 298.396,223.466 298.746 C 222.505 299.096,219.141 299.631,215.992 299.935 C 212.843 300.238,208.934 300.658,207.305 300.868 C 203.631 301.340,192.526 301.338,189.339 300.864 C 188.036 300.670,184.926 300.333,182.428 300.115 C 177.865 299.716,171.518 298.429,165.647 296.713 C 163.909 296.206,161.510 295.528,160.316 295.207 C 157.948 294.570,153.800 293.054,150.902 291.765 C 145.255 289.255,143.250 288.298,140.573 286.837 C 122.217 276.823,110.360 265.860,99.611 248.963 C 97.676 245.923,95.821 242.902,95.488 242.251 C 91.545 234.533,87.254 228.552,88.050 231.885 C 88.543 233.946,90.402 239.377,90.775 239.846 C 90.964 240.083,91.243 240.721,91.395 241.264 C 91.548 241.807,92.930 244.827,94.466 247.976 C 97.978 255.177,100.531 259.120,107.066 267.433 C 109.572 270.622,117.670 278.684,121.568 281.871 C 127.762 286.936,127.159 286.501,136.140 292.370 C 142.922 296.802,152.813 301.167,162.093 303.824 C 163.830 304.321,165.696 304.908,166.239 305.128 C 166.782 305.348,168.825 305.831,170.780 306.201 C 172.734 306.571,174.956 307.104,175.716 307.385 C 176.476 307.666,178.342 308.011,179.862 308.151 C 181.382 308.291,184.492 308.658,186.772 308.966 C 195.783 310.185,197.862 310.365,202.864 310.365 C 205.719 310.365,208.909 310.191,209.951 309.977 C 210.993 309.764,213.623 309.400,215.795 309.168 C 231.565 307.487,248.188 302.280,260.665 295.111 C 261.939 294.380,264.040 293.173,265.334 292.429 C 274.853 286.962,287.574 276.358,294.030 268.509 C 295.191 267.098,296.898 265.027,297.824 263.907 C 301.790 259.108,308.843 247.881,311.011 242.918 C 313.857 236.400,314.531 234.690,315.557 231.392 C 316.654 227.861,316.958 226.724,318.508 220.336 C 320.857 210.655,320.834 189.074,318.466 181.862 C 318.177 180.979,317.823 179.635,317.679 178.875 C 317.284 176.775,314.645 168.517,314.084 167.621 C 313.811 167.187,313.382 166.032,313.129 165.054 C 312.877 164.077,312.448 162.922,312.176 162.488 C 311.904 162.053,310.910 160.010,309.968 157.947 C 306.513 150.382,300.132 140.456,293.283 131.993 C 290.779 128.899,276.203 114.116,275.656 114.116 C 275.472 114.116,273.744 112.855,271.816 111.312 C 253.957 97.021,229.133 86.891,207.897 85.229 C 200.616 84.659,196.111 84.536,194.867 84.875 M201.042 176.340 C 206.781 177.426,215.953 182.633,217.129 185.473 C 221.111 195.086,214.620 208.012,200.954 217.682 C 189.225 225.981,175.289 222.369,173.870 210.661 C 173.739 209.576,173.410 208.243,173.140 207.700 C 172.870 207.157,172.522 205.558,172.366 204.146 C 172.088 201.619,171.592 199.334,170.398 195.077 C 168.717 189.084,170.296 180.507,173.384 178.854 C 178.598 176.064,192.773 174.776,201.042 176.340 " stroke="none" fill="#fbfafa" fill-rule="evenodd"></path><path id="path1" d="M235.545 2.358 C 235.407 2.581,234.777 2.764,234.145 2.764 C 233.513 2.764,232.368 3.119,231.601 3.554 C 230.835 3.988,229.563 4.708,228.776 5.154 C 227.989 5.600,227.086 6.223,226.770 6.540 C 226.454 6.856,226.048 7.024,225.868 6.913 C 225.688 6.802,225.092 7.244,224.543 7.896 C 223.995 8.548,223.384 9.082,223.186 9.082 C 222.988 9.082,222.129 9.837,221.277 10.760 C 220.425 11.683,219.243 12.791,218.650 13.223 C 218.057 13.655,217.571 14.188,217.570 14.408 C 217.569 14.628,216.681 15.785,215.597 16.979 C 214.513 18.174,213.625 19.344,213.624 19.579 C 213.624 19.814,212.917 20.772,212.054 21.706 C 211.191 22.641,210.563 23.532,210.658 23.687 C 210.754 23.841,210.394 24.202,209.858 24.489 C 209.323 24.776,208.885 25.276,208.885 25.601 C 208.885 25.927,208.776 26.084,208.643 25.951 C 208.285 25.594,206.515 27.840,206.515 28.652 C 206.515 29.037,206.403 29.240,206.266 29.103 C 205.954 28.790,203.378 31.612,203.366 32.280 C 203.360 32.552,203.084 32.774,202.752 32.774 C 202.419 32.774,202.045 33.039,201.921 33.364 C 201.796 33.688,201.562 33.872,201.400 33.772 C 201.051 33.557,199.408 35.361,199.408 35.959 C 199.408 36.188,199.250 36.277,199.058 36.158 C 198.865 36.039,198.494 36.198,198.234 36.512 C 197.699 37.157,191.864 40.127,191.419 39.981 C 191.260 39.929,190.500 40.241,189.729 40.674 C 188.958 41.107,187.844 41.459,187.254 41.457 C 184.509 41.447,178.158 42.475,176.987 43.118 C 176.275 43.510,175.297 43.832,174.815 43.834 C 174.333 43.837,173.139 44.078,172.162 44.370 C 171.185 44.662,170.147 44.817,169.857 44.716 C 169.567 44.614,168.589 44.895,167.685 45.340 C 166.781 45.785,164.487 46.356,162.586 46.610 C 160.686 46.863,159.131 47.241,159.131 47.448 C 159.131 47.656,158.946 47.711,158.719 47.571 C 158.492 47.431,157.891 47.589,157.382 47.922 C 156.874 48.255,155.638 48.570,154.636 48.622 C 153.633 48.674,152.813 48.871,152.813 49.061 C 152.813 49.250,152.645 49.301,152.439 49.174 C 151.948 48.870,143.573 50.213,143.402 50.622 C 143.106 51.334,136.199 50.970,135.097 50.185 C 134.516 49.772,133.422 49.372,132.667 49.297 C 131.911 49.222,131.204 49.070,131.096 48.958 C 130.987 48.847,130.010 48.339,128.924 47.829 C 127.838 47.320,126.641 46.744,126.264 46.551 C 125.887 46.358,125.265 46.195,124.882 46.191 C 124.499 46.186,123.741 45.834,123.198 45.410 C 122.655 44.985,121.822 44.634,121.346 44.629 C 120.870 44.624,120.369 44.439,120.233 44.219 C 120.097 43.998,119.845 43.904,119.675 44.009 C 119.504 44.114,118.952 43.762,118.449 43.226 C 117.945 42.689,117.130 42.251,116.638 42.251 C 116.145 42.251,115.630 42.068,115.492 41.845 C 115.354 41.622,115.032 41.488,114.777 41.547 C 114.521 41.606,113.752 41.255,113.067 40.768 C 112.383 40.280,111.486 39.882,111.074 39.882 C 110.162 39.882,108.201 39.007,108.197 38.598 C 108.195 38.435,107.925 38.302,107.596 38.302 C 107.267 38.302,106.690 38.147,106.313 37.957 C 103.102 36.339,102.040 35.933,101.025 35.933 C 100.381 35.933,99.948 35.782,100.062 35.598 C 100.176 35.413,99.733 35.247,99.079 35.229 C 98.424 35.210,97.130 34.828,96.203 34.379 C 95.277 33.931,94.166 33.564,93.735 33.564 C 93.304 33.564,92.779 33.391,92.568 33.180 C 91.939 32.551,84.539 32.478,84.154 33.096 C 83.976 33.382,83.567 33.655,83.244 33.702 C 82.922 33.749,81.963 34.324,81.112 34.978 C 80.262 35.633,79.106 36.456,78.545 36.807 C 77.983 37.158,76.836 38.171,75.996 39.058 C 75.155 39.945,74.306 40.671,74.110 40.671 C 73.914 40.671,72.781 41.560,71.593 42.646 C 70.405 43.731,69.289 44.620,69.114 44.620 C 68.938 44.620,67.283 46.086,65.436 47.878 C 63.589 49.669,61.337 51.757,60.433 52.517 C 57.642 54.861,51.728 60.955,51.728 61.485 C 51.728 61.761,51.372 62.209,50.938 62.481 C 50.503 62.752,50.148 63.188,50.148 63.449 C 50.148 63.710,49.639 64.224,49.017 64.592 C 47.953 65.220,46.320 67.410,46.491 67.978 C 46.534 68.120,46.308 68.453,45.989 68.717 C 45.196 69.375,45.262 69.891,46.138 69.891 C 47.272 69.891,47.981 70.997,49.174 74.630 C 49.781 76.476,51.112 80.030,52.132 82.527 C 58.667 98.531,60.074 102.152,61.337 106.219 C 65.342 119.117,64.530 131.141,59.625 131.564 C 58.318 131.677,57.144 133.074,56.866 134.847 C 56.832 135.064,56.560 135.512,56.262 135.842 C 55.963 136.171,55.675 137.183,55.622 138.089 C 55.568 138.994,55.419 139.670,55.289 139.590 C 55.160 139.510,54.827 140.010,54.550 140.700 C 54.272 141.390,53.879 142.263,53.676 142.640 C 53.473 143.017,53.307 143.601,53.307 143.937 C 53.307 144.274,53.025 144.979,52.681 145.505 C 52.336 146.031,52.169 146.646,52.309 146.873 C 52.449 147.100,52.376 147.285,52.146 147.285 C 51.916 147.285,51.728 147.719,51.728 148.249 C 51.728 148.779,51.571 149.310,51.379 149.428 C 51.188 149.547,51.021 150.378,51.009 151.276 C 50.994 152.358,50.711 153.201,50.172 153.775 C 49.725 154.251,49.358 155.121,49.358 155.707 C 49.358 156.768,49.269 157.016,48.031 159.392 C 47.673 160.079,47.501 160.951,47.647 161.332 C 47.811 161.758,47.758 161.929,47.511 161.776 C 47.275 161.630,47.095 162.009,47.075 162.693 C 47.057 163.335,46.902 164.084,46.731 164.358 C 46.560 164.632,46.366 165.205,46.299 165.631 C 46.233 166.057,45.828 167.000,45.399 167.727 C 44.971 168.454,44.620 169.288,44.620 169.581 C 44.620 169.873,44.279 170.796,43.863 171.631 C 42.987 173.387,42.585 174.430,42.385 175.463 C 42.306 175.867,41.889 176.694,41.457 177.301 C 41.025 177.908,40.666 178.555,40.661 178.738 C 40.641 179.346,37.908 182.034,37.310 182.034 C 36.987 182.034,36.723 182.304,36.723 182.636 C 36.723 182.967,36.274 183.408,35.725 183.617 C 35.177 183.825,34.625 184.265,34.498 184.594 C 34.372 184.923,33.961 185.192,33.586 185.192 C 33.210 185.192,32.150 185.995,31.231 186.976 C 30.312 187.956,29.367 188.640,29.132 188.494 C 28.876 188.336,28.817 188.413,28.985 188.685 C 29.149 188.950,29.026 189.141,28.693 189.141 C 28.378 189.141,28.020 189.402,27.898 189.721 C 27.775 190.040,27.090 190.578,26.375 190.916 C 24.281 191.907,23.316 192.529,22.164 193.632 C 21.569 194.203,20.961 194.669,20.812 194.669 C 20.327 194.669,15.735 198.315,15.522 198.869 C 15.408 199.165,15.023 199.411,14.667 199.416 C 14.010 199.424,8.940 203.001,7.086 204.766 C 6.531 205.294,5.902 205.726,5.687 205.726 C 5.473 205.726,4.512 206.526,3.553 207.504 C 1.287 209.812,1.167 212.208,3.027 217.966 C 5.170 224.599,5.096 224.316,10.459 246.199 C 12.916 256.225,14.319 261.305,14.964 262.510 C 15.839 264.145,28.740 268.175,40.474 270.478 C 43.488 271.069,45.541 271.505,47.779 272.029 C 48.756 272.257,50.888 272.709,52.517 273.032 C 55.865 273.697,61.453 275.263,64.903 276.503 C 67.950 277.598,77.564 287.079,89.433 300.691 C 93.978 305.903,99.401 312.039,101.486 314.325 C 110.960 324.719,112.709 329.607,114.343 350.247 C 114.554 352.905,115.421 359.348,116.123 363.475 C 116.954 368.350,119.131 373.783,120.889 375.366 C 122.227 376.572,132.602 380.545,146.063 385.009 C 164.364 391.077,169.003 392.843,169.003 393.743 C 169.003 394.524,170.759 393.742,171.693 392.546 C 173.320 390.462,177.874 385.106,180.586 382.089 C 181.925 380.599,183.349 378.778,183.750 378.042 C 184.152 377.305,184.685 376.699,184.935 376.694 C 185.185 376.690,185.923 376.038,186.575 375.247 C 188.410 373.016,191.029 370.073,194.066 366.827 C 198.789 361.780,199.140 361.292,199.087 359.862 C 198.964 356.592,212.300 350.878,223.889 349.235 C 232.113 348.070,248.258 344.616,250.272 343.591 C 252.545 342.435,261.466 341.729,266.535 342.304 C 274.648 343.225,282.580 345.975,297.730 353.115 C 304.234 356.181,309.521 358.496,312.277 359.483 C 316.819 361.111,319.052 362.151,319.052 362.639 C 319.052 364.322,320.656 364.044,322.762 361.996 C 323.935 360.855,325.846 359.027,327.009 357.935 C 328.171 356.843,329.311 355.611,329.543 355.198 C 329.774 354.784,330.304 354.256,330.719 354.024 C 331.834 353.403,338.999 346.246,339.541 345.212 C 339.798 344.724,340.188 344.324,340.407 344.324 C 340.928 344.324,342.744 342.503,342.744 341.981 C 342.744 341.759,344.187 340.196,345.950 338.508 C 347.713 336.820,349.705 334.640,350.375 333.662 C 351.046 332.685,352.225 331.204,352.994 330.370 C 353.763 329.537,354.536 328.603,354.710 328.295 C 354.884 327.987,355.462 327.266,355.993 326.692 C 357.026 325.578,357.469 319.809,356.565 319.250 C 356.347 319.116,356.170 318.430,356.170 317.726 C 356.170 317.022,355.965 316.241,355.714 315.991 C 355.464 315.740,355.274 314.997,355.293 314.339 C 355.312 313.681,355.161 313.041,354.959 312.915 C 354.756 312.790,354.590 312.265,354.590 311.747 C 354.590 311.230,354.413 310.697,354.195 310.563 C 353.978 310.428,353.801 309.895,353.801 309.378 C 353.801 308.861,353.623 308.328,353.406 308.193 C 353.189 308.059,353.011 307.602,353.011 307.178 C 353.011 306.753,352.854 306.097,352.662 305.720 C 351.867 304.157,351.380 302.993,351.296 302.451 C 351.246 302.135,350.901 301.271,350.529 300.532 C 350.157 299.792,349.846 298.904,349.839 298.557 C 349.832 298.211,349.572 297.590,349.260 297.178 C 348.948 296.766,348.779 296.289,348.884 296.119 C 348.989 295.949,348.894 295.698,348.674 295.562 C 348.453 295.425,348.272 294.966,348.272 294.542 C 348.272 293.795,347.552 292.210,347.030 291.807 C 346.889 291.698,346.718 291.076,346.650 290.424 C 346.581 289.773,346.408 289.062,346.265 288.845 C 346.122 288.628,345.772 287.473,345.487 286.278 C 345.202 285.084,344.824 283.938,344.647 283.731 C 344.469 283.525,344.324 282.958,344.324 282.471 C 344.324 281.985,344.170 281.491,343.981 281.375 C 343.793 281.258,343.529 280.404,343.395 279.476 C 343.261 278.548,343.002 276.964,342.820 275.956 C 342.596 274.724,342.653 273.496,342.993 272.205 C 343.272 271.150,343.507 269.808,343.517 269.224 C 343.526 268.639,343.712 268.051,343.929 267.917 C 344.146 267.783,344.324 267.072,344.324 266.338 C 344.324 265.603,344.501 264.892,344.719 264.758 C 344.936 264.624,345.114 263.913,345.114 263.179 C 345.114 262.444,345.300 261.728,345.527 261.588 C 345.755 261.447,345.905 261.037,345.860 260.676 C 345.816 260.315,345.985 259.520,346.236 258.908 C 346.488 258.297,346.693 257.488,346.693 257.112 C 346.693 256.735,346.868 256.252,347.081 256.038 C 347.295 255.824,347.517 254.990,347.575 254.183 C 347.633 253.376,347.813 252.716,347.976 252.716 C 348.139 252.715,348.272 252.281,348.272 251.751 C 348.272 251.221,348.450 250.677,348.667 250.543 C 348.885 250.409,349.062 249.876,349.062 249.358 C 349.062 248.841,349.240 248.308,349.457 248.174 C 349.674 248.040,349.852 247.329,349.852 246.594 C 349.852 245.860,350.030 245.149,350.247 245.015 C 350.464 244.881,350.642 244.248,350.642 243.609 C 350.642 242.971,350.819 242.448,351.037 242.448 C 351.254 242.448,351.431 242.039,351.431 241.540 C 351.431 241.040,351.588 240.463,351.779 240.257 C 351.969 240.050,352.337 239.171,352.596 238.302 C 353.077 236.685,353.623 235.278,354.242 234.063 C 354.433 233.686,354.590 233.030,354.590 232.605 C 354.590 232.181,354.768 231.724,354.985 231.589 C 355.202 231.455,355.380 230.922,355.380 230.405 C 355.380 229.887,355.558 229.354,355.775 229.220 C 355.992 229.086,356.170 228.648,356.170 228.247 C 356.170 227.846,356.550 226.746,357.016 225.802 C 357.481 224.859,357.995 223.731,358.158 223.297 C 359.016 221.016,361.422 216.387,361.749 216.387 C 361.957 216.387,362.824 215.742,363.675 214.955 C 364.527 214.167,365.740 213.145,366.371 212.684 C 367.923 211.551,371.605 208.665,372.458 207.914 C 372.838 207.579,373.149 207.398,373.149 207.512 C 373.149 207.625,374.053 207.003,375.159 206.130 C 376.264 205.256,377.375 204.540,377.627 204.539 C 377.879 204.538,378.796 203.884,379.664 203.087 C 380.533 202.289,381.244 201.679,381.244 201.732 C 381.244 202.107,383.171 200.958,384.933 199.533 C 386.094 198.595,387.198 197.923,387.388 198.040 C 387.578 198.158,387.960 197.891,388.236 197.449 C 388.513 197.006,388.964 196.644,389.239 196.644 C 389.514 196.644,392.063 195.095,394.904 193.202 L 400.070 189.761 399.936 172.711 C 399.818 157.604,399.729 155.576,399.156 154.928 C 398.724 154.438,398.575 153.769,398.708 152.909 C 398.817 152.201,398.718 151.395,398.489 151.118 C 398.259 150.842,398.028 149.733,397.977 148.654 C 397.925 147.575,397.537 146.071,397.115 145.311 C 396.633 144.442,396.363 143.240,396.390 142.072 C 396.412 141.051,396.257 140.107,396.044 139.976 C 395.831 139.844,395.656 138.886,395.656 137.846 C 395.656 136.806,395.380 135.401,395.041 134.722 C 394.703 134.044,394.329 132.817,394.210 131.996 C 393.892 129.795,393.183 128.332,392.434 128.332 C 392.071 128.332,391.714 128.153,391.641 127.935 C 391.569 127.717,390.772 127.495,389.872 127.441 C 388.971 127.388,388.316 127.211,388.415 127.048 C 388.514 126.885,388.057 126.752,387.400 126.752 C 386.742 126.752,385.621 126.426,384.908 126.028 C 383.711 125.358,382.432 125.132,379.208 125.019 C 378.523 124.995,378.033 124.862,378.118 124.724 C 378.322 124.394,376.895 123.939,374.926 123.707 C 374.057 123.605,373.169 123.384,372.952 123.215 C 372.601 122.943,369.369 122.670,366.933 122.707 C 366.445 122.714,366.145 122.561,366.265 122.367 C 366.385 122.173,366.128 122.014,365.693 122.014 C 365.259 122.014,364.816 121.872,364.708 121.698 C 364.601 121.524,363.751 121.337,362.819 121.282 C 361.888 121.227,361.030 121.027,360.914 120.838 C 360.797 120.649,359.504 120.440,358.041 120.375 C 356.577 120.309,355.379 120.162,355.377 120.049 C 355.371 119.649,353.236 118.855,352.166 118.855 C 351.570 118.855,350.973 118.677,350.839 118.460 C 350.705 118.243,349.816 118.065,348.865 118.065 C 347.913 118.065,347.025 117.887,346.890 117.670 C 346.756 117.453,346.242 117.275,345.748 117.275 C 345.254 117.275,344.725 117.150,344.572 116.997 C 344.419 116.844,343.812 116.656,343.223 116.578 C 342.634 116.501,342.093 116.270,342.020 116.067 C 341.948 115.863,341.537 115.696,341.108 115.696 C 340.675 115.696,339.160 114.541,337.710 113.105 C 336.271 111.680,334.396 109.947,333.545 109.255 C 331.286 107.419,328.529 104.720,328.529 104.345 C 328.529 104.166,327.996 103.705,327.345 103.320 C 326.693 102.936,326.160 102.440,326.160 102.220 C 326.160 101.699,325.355 100.913,324.482 100.583 C 324.102 100.439,323.791 100.038,323.791 99.693 C 323.791 99.348,323.613 99.175,323.396 99.309 C 323.179 99.443,323.001 99.357,323.001 99.118 C 323.001 98.547,320.887 96.196,316.387 91.760 C 314.378 89.780,312.734 87.984,312.734 87.769 C 312.734 87.554,311.668 86.393,310.365 85.189 C 309.062 83.985,307.996 82.780,307.996 82.513 C 307.996 81.915,306.008 80.159,305.331 80.158 C 304.898 80.158,304.685 79.692,304.770 78.935 C 304.785 78.805,304.095 78.014,303.237 77.177 C 302.380 76.339,301.678 75.500,301.678 75.311 C 301.678 74.841,300.835 74.048,300.000 73.732 C 299.620 73.588,299.309 73.198,299.309 72.865 C 299.309 72.533,299.170 72.261,298.999 72.261 C 298.829 72.261,298.395 71.772,298.035 71.175 C 297.674 70.577,296.970 69.645,296.469 69.102 C 295.968 68.559,295.540 67.892,295.518 67.621 C 295.497 67.349,295.452 66.673,295.420 66.117 C 295.387 65.561,295.185 65.215,294.970 65.348 C 294.755 65.480,294.674 65.344,294.789 65.044 C 294.904 64.745,294.780 63.980,294.514 63.345 C 293.922 61.936,293.104 56.650,292.777 52.122 C 292.644 50.276,292.430 48.500,292.303 48.174 C 292.176 47.848,292.057 47.463,292.038 47.318 C 292.019 47.173,291.871 46.922,291.708 46.759 C 291.545 46.596,291.412 44.282,291.412 41.616 C 291.412 38.811,291.245 36.666,291.017 36.525 C 290.792 36.386,290.622 34.407,290.622 31.938 C 290.622 27.387,290.010 22.179,289.400 21.540 C 289.204 21.334,289.042 20.917,289.042 20.615 C 289.042 20.025,287.563 17.970,287.131 17.960 C 286.988 17.957,286.649 17.813,286.377 17.641 C 286.106 17.469,285.706 17.437,285.489 17.572 C 285.271 17.706,285.094 17.617,285.094 17.374 C 285.094 17.131,284.930 17.034,284.731 17.157 C 284.531 17.280,284.131 17.158,283.842 16.884 C 283.553 16.611,282.873 16.189,282.330 15.946 C 279.973 14.894,278.961 14.401,278.776 14.216 C 278.270 13.709,276.742 13.031,276.105 13.031 C 275.716 13.031,274.960 12.724,274.424 12.349 C 273.384 11.620,272.762 11.406,271.410 11.313 C 270.942 11.280,270.641 11.120,270.742 10.958 C 270.843 10.795,270.565 10.661,270.124 10.661 C 269.684 10.661,268.690 10.306,267.917 9.872 C 267.144 9.437,266.172 9.082,265.757 9.082 C 265.342 9.082,264.906 8.926,264.789 8.736 C 264.671 8.546,264.142 8.391,263.612 8.391 C 263.083 8.391,262.147 8.047,261.532 7.626 C 260.917 7.205,259.900 6.827,259.270 6.786 C 258.640 6.745,257.930 6.567,257.690 6.389 C 257.451 6.211,256.778 6.037,256.193 6.001 C 255.609 5.965,254.493 5.577,253.713 5.140 C 252.934 4.702,251.601 4.344,250.752 4.344 C 249.902 4.344,249.094 4.159,248.955 3.935 C 248.816 3.710,248.020 3.566,247.187 3.615 C 246.354 3.664,245.396 3.476,245.059 3.196 C 244.686 2.886,243.828 2.759,242.860 2.871 C 241.885 2.984,241.119 2.869,240.874 2.573 C 240.382 1.980,235.891 1.799,235.545 2.358 M207.897 85.229 C 229.133 86.891,253.957 97.021,271.816 111.312 C 273.744 112.855,275.472 114.116,275.656 114.116 C 276.203 114.116,290.779 128.899,293.283 131.993 C 300.132 140.456,306.513 150.382,309.968 157.947 C 310.910 160.010,311.904 162.053,312.176 162.488 C 312.448 162.922,312.877 164.077,313.129 165.054 C 313.382 166.032,313.811 167.187,314.084 167.621 C 314.645 168.517,317.284 176.775,317.679 178.875 C 317.823 179.635,318.177 180.979,318.466 181.862 C 320.834 189.074,320.857 210.655,318.508 220.336 C 316.958 226.724,316.654 227.861,315.557 231.392 C 314.531 234.690,313.857 236.400,311.011 242.918 C 308.843 247.881,301.790 259.108,297.824 263.907 C 296.898 265.027,295.191 267.098,294.030 268.509 C 287.574 276.358,274.853 286.962,265.334 292.429 C 264.040 293.173,261.939 294.380,260.665 295.111 C 248.188 302.280,231.565 307.487,215.795 309.168 C 213.623 309.400,210.993 309.764,209.951 309.977 C 208.909 310.191,205.719 310.365,202.864 310.365 C 197.862 310.365,195.783 310.185,186.772 308.966 C 184.492 308.658,181.382 308.291,179.862 308.151 C 178.342 308.011,176.476 307.666,175.716 307.385 C 174.956 307.104,172.734 306.571,170.780 306.201 C 168.825 305.831,166.782 305.348,166.239 305.128 C 165.696 304.908,163.830 304.321,162.093 303.824 C 152.813 301.167,142.922 296.802,136.140 292.370 C 127.159 286.501,127.762 286.936,121.568 281.871 C 117.670 278.684,109.572 270.622,107.066 267.433 C 100.531 259.120,97.978 255.177,94.466 247.976 C 92.930 244.827,91.548 241.807,91.395 241.264 C 91.243 240.721,90.964 240.083,90.775 239.846 C 90.402 239.377,88.543 233.946,88.050 231.885 C 87.254 228.552,91.545 234.533,95.488 242.251 C 105.466 261.779,125.143 280.155,146.298 289.700 C 151.689 292.132,152.771 292.594,155.443 293.603 C 156.928 294.164,159.121 294.886,160.316 295.207 C 161.510 295.528,163.909 296.206,165.647 296.713 C 171.518 298.429,177.865 299.716,182.428 300.115 C 184.926 300.333,188.036 300.670,189.339 300.864 C 192.526 301.338,203.631 301.340,207.305 300.868 C 208.934 300.658,212.843 300.238,215.992 299.935 C 219.141 299.631,222.505 299.096,223.466 298.746 C 224.428 298.396,226.472 297.917,228.007 297.681 C 229.543 297.445,231.404 297.002,232.142 296.697 C 232.880 296.391,234.568 295.861,235.893 295.518 C 237.218 295.175,239.048 294.555,239.959 294.140 C 240.870 293.725,241.775 293.386,241.969 293.386 C 243.046 293.386,251.085 289.631,256.269 286.706 C 266.066 281.178,279.146 268.579,287.869 256.269 C 289.023 254.640,291.540 251.138,293.463 248.487 C 304.847 232.789,310.389 206.382,305.657 190.388 C 305.442 189.661,304.980 187.542,304.631 185.679 C 304.282 183.815,303.762 181.832,303.477 181.273 C 303.191 180.714,302.828 179.635,302.668 178.875 C 302.311 177.170,300.031 171.222,298.485 167.959 C 297.852 166.625,297.335 165.426,297.335 165.295 C 297.335 165.163,296.155 162.967,294.713 160.415 C 293.271 157.863,291.440 154.531,290.642 153.011 C 284.367 141.043,267.408 124.017,258.075 120.316 C 257.637 120.142,256.385 119.408,255.293 118.685 C 252.986 117.157,243.422 112.501,239.684 111.086 C 219.491 103.445,206.429 101.024,198.815 103.512 C 198.164 103.725,196.032 104.144,194.077 104.443 C 190.423 105.003,188.166 105.637,180.652 108.218 C 157.615 116.130,147.424 123.790,140.160 138.655 C 139.061 140.904,137.965 143.098,137.725 143.530 C 137.045 144.754,135.045 150.723,134.217 153.998 C 133.805 155.627,133.207 157.767,132.887 158.754 C 132.567 159.740,132.126 161.784,131.907 163.295 C 131.687 164.805,131.193 167.996,130.808 170.385 C 129.039 181.368,130.128 194.468,133.779 206.120 C 138.582 221.448,146.882 233.450,158.144 241.352 C 160.170 242.773,166.903 246.397,167.518 246.397 C 167.707 246.397,168.631 246.747,169.572 247.176 C 173.552 248.989,194.128 249.409,199.408 247.785 C 200.602 247.418,203.001 246.709,204.738 246.210 C 223.606 240.795,239.986 225.192,244.483 208.352 C 244.898 206.799,245.445 204.817,245.699 203.949 C 246.592 200.893,246.341 186.632,245.337 183.416 C 244.863 181.895,244.354 180.046,244.206 179.307 C 242.027 168.383,225.578 153.498,213.397 151.427 C 212.544 151.282,211.046 150.868,210.069 150.508 C 207.393 149.520,185.529 149.535,182.626 150.526 C 181.540 150.897,179.408 151.486,177.887 151.835 C 172.176 153.146,167.201 156.973,163.784 162.685 C 161.350 166.754,160.977 167.543,159.724 171.268 C 158.109 176.067,158.891 176.405,165.132 173.609 C 168.464 172.116,173.498 169.993,177.098 168.562 C 179.269 167.699,181.328 166.840,181.671 166.654 C 182.015 166.467,183.881 166.009,185.817 165.635 C 187.754 165.261,190.227 164.701,191.314 164.389 C 193.898 163.649,202.395 163.869,206.713 164.789 C 208.450 165.159,210.713 165.633,211.741 165.842 C 212.768 166.051,215.455 167.105,217.710 168.185 C 236.878 177.362,241.097 195.075,228.922 215.264 C 214.054 239.919,189.094 249.677,170.582 238.071 C 170.257 237.867,169.229 237.350,168.298 236.923 C 167.368 236.496,165.146 234.927,163.362 233.435 C 145.881 218.825,136.026 194.269,138.534 171.570 C 140.838 150.720,159.730 132.634,182.428 129.547 C 184.274 129.297,187.310 128.831,189.175 128.514 C 193.451 127.786,197.747 127.780,202.115 128.496 C 208.239 129.500,211.246 129.911,212.544 129.920 C 215.890 129.944,226.208 133.217,231.787 136.023 C 253.352 146.872,268.722 171.995,267.182 193.880 C 266.801 199.289,265.811 207.784,265.387 209.279 C 263.174 217.083,262.216 219.542,258.773 226.259 C 253.960 235.648,251.018 239.819,244.427 246.594 C 236.818 254.417,226.228 260.809,214.808 264.475 C 205.317 267.520,203.773 267.880,197.583 268.491 C 195.385 268.708,193.107 269.067,192.523 269.290 C 190.863 269.921,181.389 269.791,178.741 269.102 C 177.490 268.776,175.809 268.509,175.005 268.508 C 169.887 268.503,157.391 264.396,151.344 260.731 C 150.089 259.971,148.706 259.209,148.271 259.040 C 141.764 256.503,127.009 239.265,120.550 226.654 C 118.351 222.361,115.621 215.531,114.316 211.056 C 113.810 209.319,113.210 207.364,112.985 206.713 C 112.759 206.061,112.212 203.336,111.769 200.658 C 111.326 197.979,110.835 195.581,110.679 195.328 C 109.195 192.927,109.380 164.867,110.918 158.934 C 111.144 158.065,111.623 155.311,111.984 152.813 C 112.344 150.316,112.868 147.820,113.148 147.268 C 113.429 146.715,113.939 145.177,114.284 143.849 C 116.669 134.643,126.502 119.163,135.104 111.072 C 145.360 101.424,160.168 92.649,171.611 89.437 C 173.372 88.943,175.149 88.362,175.560 88.145 C 175.971 87.929,178.443 87.375,181.053 86.915 C 183.663 86.455,186.416 85.902,187.171 85.685 C 187.926 85.468,189.700 85.270,191.113 85.244 C 192.526 85.219,194.215 85.053,194.867 84.875 C 196.111 84.536,200.616 84.659,207.897 85.229 M181.046 176.511 C 173.869 178.135,172.957 178.623,171.191 181.780 C 169.553 184.710,169.191 190.773,170.398 195.077 C 171.592 199.334,172.088 201.619,172.366 204.146 C 172.522 205.558,172.870 207.157,173.140 207.700 C 173.410 208.243,173.739 209.576,173.870 210.661 C 175.289 222.369,189.225 225.981,200.954 217.682 C 214.620 208.012,221.111 195.086,217.129 185.473 C 215.953 182.633,206.781 177.426,201.042 176.340 C 196.345 175.452,185.312 175.546,181.046 176.511 " stroke="none" fill="#e3041b" fill-rule="evenodd"></path><path id="path2" d="M290.768 32.379 C 290.768 34.659,290.833 35.592,290.913 34.452 C 290.993 33.312,290.993 31.446,290.913 30.306 C 290.833 29.166,290.768 30.099,290.768 32.379 M100.099 35.538 C 99.964 35.755,100.231 35.933,100.691 35.933 C 101.151 35.933,101.418 35.755,101.283 35.538 C 101.149 35.321,100.883 35.143,100.691 35.143 C 100.499 35.143,100.233 35.321,100.099 35.538 M45.094 70.365 C 44.833 70.626,44.620 71.237,44.620 71.724 C 44.620 72.211,44.442 72.719,44.225 72.853 C 44.008 72.987,43.830 73.501,43.830 73.995 C 43.830 74.489,43.703 75.020,43.548 75.175 C 42.025 76.699,42.025 85.592,43.548 87.115 C 43.703 87.270,43.830 87.801,43.830 88.295 C 43.830 88.789,44.008 89.303,44.225 89.437 C 44.442 89.572,44.620 90.282,44.620 91.017 C 44.620 91.751,44.798 92.462,45.015 92.596 C 45.232 92.730,45.410 93.264,45.410 93.781 C 45.410 94.298,45.587 94.831,45.805 94.965 C 46.022 95.100,46.199 95.633,46.199 96.150 C 46.199 96.667,46.377 97.200,46.594 97.335 C 46.811 97.469,46.989 98.002,46.989 98.519 C 46.989 99.037,47.167 99.570,47.384 99.704 C 47.601 99.838,47.779 100.287,47.779 100.702 C 47.779 101.117,48.134 102.089,48.569 102.863 C 49.003 103.636,49.358 104.608,49.358 105.023 C 49.358 105.438,49.536 105.887,49.753 106.022 C 49.970 106.156,50.148 106.689,50.148 107.206 C 50.148 107.724,50.326 108.257,50.543 108.391 C 50.760 108.525,50.938 109.058,50.938 109.576 C 50.938 110.093,51.115 110.626,51.333 110.760 C 51.550 110.894,51.728 111.344,51.728 111.759 C 51.728 112.174,52.083 113.146,52.517 113.919 C 52.952 114.692,53.307 115.665,53.307 116.080 C 53.307 116.494,53.485 116.944,53.702 117.078 C 53.919 117.212,54.097 117.662,54.097 118.076 C 54.097 118.491,54.418 119.414,54.811 120.126 C 55.203 120.839,55.773 122.488,56.077 123.791 C 56.380 125.094,56.851 126.594,57.123 127.125 C 57.395 127.657,57.828 128.913,58.085 129.917 C 58.550 131.731,58.562 131.741,59.977 131.518 C 64.614 130.786,65.246 118.934,61.327 106.219 C 60.073 102.152,58.677 98.556,52.132 82.527 C 51.112 80.030,49.781 76.476,49.174 74.630 C 47.714 70.186,46.521 68.938,45.094 70.365 M307.996 82.669 C 307.996 83.076,309.982 85.017,310.188 84.811 C 310.281 84.718,309.826 84.132,309.177 83.510 C 308.527 82.888,307.996 82.510,307.996 82.669 M26.990 189.928 C 26.524 190.116,26.035 190.444,25.904 190.656 C 25.543 191.240,27.147 190.723,27.676 190.086 C 28.193 189.463,28.161 189.456,26.990 189.928 M0.077 229.911 C 0.185 249.188,0.264 251.426,0.859 252.266 C 1.222 252.780,1.432 253.428,1.325 253.707 C 1.218 253.986,1.321 254.332,1.553 254.475 C 1.785 254.618,1.974 255.159,1.974 255.676 C 1.974 256.194,2.152 256.727,2.369 256.861 C 2.586 256.995,2.764 257.706,2.764 258.440 C 2.764 259.175,2.942 259.886,3.159 260.020 C 3.376 260.154,3.554 260.603,3.554 261.018 C 3.554 261.433,3.909 262.405,4.344 263.179 C 4.778 263.952,5.133 264.829,5.133 265.128 C 5.133 265.776,6.784 269.046,7.206 269.233 C 7.369 269.306,7.502 269.583,7.502 269.850 C 7.502 270.827,14.210 274.827,15.847 274.827 C 16.227 274.827,16.648 275.005,16.782 275.222 C 16.916 275.439,17.424 275.617,17.911 275.617 C 18.397 275.617,18.964 275.766,19.171 275.948 C 19.377 276.130,20.612 276.498,21.915 276.766 C 23.218 277.033,24.927 277.417,25.712 277.619 C 26.497 277.821,27.796 277.986,28.598 277.986 C 29.400 277.986,29.957 278.147,29.836 278.343 C 29.623 278.687,30.400 278.821,35.933 279.394 C 37.345 279.540,38.688 279.810,38.919 279.994 C 39.149 280.178,40.430 280.372,41.765 280.425 C 43.100 280.477,44.105 280.607,44.000 280.712 C 43.742 280.970,47.308 281.896,48.644 281.917 C 49.228 281.927,49.816 282.113,49.951 282.330 C 50.085 282.547,50.618 282.725,51.135 282.725 C 51.653 282.725,52.186 282.902,52.320 283.119 C 52.454 283.337,52.987 283.514,53.504 283.514 C 54.022 283.514,54.555 283.692,54.689 283.909 C 54.823 284.126,55.253 284.304,55.644 284.304 C 58.113 284.304,62.728 287.821,68.086 293.786 C 69.156 294.978,72.088 298.161,74.601 300.859 C 77.115 303.558,80.681 307.390,82.527 309.374 C 84.373 311.359,87.513 314.837,89.505 317.104 C 91.496 319.370,93.519 321.668,93.999 322.211 C 94.479 322.754,96.020 324.576,97.422 326.259 C 98.825 327.942,100.134 329.319,100.332 329.319 C 100.529 329.319,100.691 329.765,100.691 330.311 C 100.691 330.857,100.869 331.657,101.086 332.088 C 101.303 332.520,101.658 333.226,101.876 333.657 C 102.093 334.088,102.270 334.878,102.270 335.411 C 102.270 335.944,102.416 336.470,102.593 336.579 C 102.770 336.689,103.157 338.476,103.452 340.551 C 103.747 342.626,104.135 344.324,104.314 344.324 C 104.493 344.324,104.640 345.933,104.640 347.901 C 104.640 349.911,104.795 351.382,104.994 351.259 C 105.189 351.139,105.331 351.528,105.310 352.124 C 105.203 355.167,105.466 360.143,105.726 359.983 C 105.888 359.883,106.063 360.882,106.113 362.202 C 106.163 363.523,106.404 364.727,106.649 364.878 C 106.972 365.078,106.974 365.227,106.656 365.423 C 106.416 365.572,106.219 365.871,106.219 366.088 C 106.219 366.305,106.397 366.373,106.614 366.239 C 106.862 366.086,107.009 366.951,107.009 368.561 C 107.009 369.973,107.187 371.238,107.404 371.372 C 107.621 371.506,107.799 372.306,107.799 373.149 C 107.799 373.992,107.976 374.792,108.193 374.926 C 108.411 375.060,108.588 375.682,108.588 376.308 C 108.588 376.934,108.766 377.556,108.983 377.690 C 109.200 377.824,109.378 378.333,109.378 378.820 C 109.378 380.132,112.770 383.021,114.309 383.021 C 114.637 383.021,114.906 383.198,114.906 383.416 C 114.906 383.633,115.262 383.810,115.696 383.810 C 116.130 383.810,116.486 383.988,116.486 384.205 C 116.486 384.423,116.755 384.600,117.083 384.600 C 117.650 384.600,119.219 385.337,119.645 385.803 C 119.990 386.181,124.562 388.351,125.025 388.357 C 125.430 388.362,126.610 388.856,128.425 389.780 C 128.802 389.971,129.468 390.128,129.906 390.128 C 130.343 390.128,130.702 390.262,130.704 390.424 C 130.708 390.820,132.656 391.708,133.520 391.708 C 133.899 391.708,134.325 391.898,134.469 392.130 C 134.612 392.362,134.958 392.464,135.236 392.357 C 135.515 392.250,136.075 392.390,136.480 392.669 C 136.885 392.947,137.927 393.401,138.796 393.677 C 139.664 393.954,140.563 394.328,140.794 394.509 C 141.515 395.077,169.896 394.754,170.089 394.175 C 170.193 393.862,170.025 393.769,169.628 393.922 C 169.284 394.054,169.003 394.003,169.003 393.810 C 169.003 392.837,164.744 391.202,146.063 385.009 C 132.602 380.545,122.227 376.572,120.889 375.366 C 119.131 373.783,116.954 368.350,116.123 363.475 C 115.421 359.348,114.554 352.905,114.343 350.247 C 112.709 329.607,110.960 324.719,101.486 314.325 C 99.401 312.039,93.978 305.903,89.433 300.691 C 77.564 287.079,67.950 277.598,64.903 276.503 C 61.453 275.263,55.865 273.697,52.517 273.032 C 50.888 272.709,48.756 272.257,47.779 272.029 C 45.541 271.505,43.488 271.069,40.474 270.478 C 28.740 268.175,15.839 264.145,14.964 262.510 C 14.319 261.305,12.916 256.225,10.459 246.199 C 5.096 224.316,5.170 224.599,3.027 217.966 C 2.177 215.335,1.817 213.449,1.822 211.649 C 1.825 210.237,1.639 208.951,1.408 208.792 C -0.045 207.790,-0.047 207.830,0.077 229.911 M257.848 342.209 C 255.264 342.449,250.940 343.232,250.272 343.581 C 248.323 344.601,232.181 348.060,223.889 349.235 C 212.024 350.917,198.964 356.589,199.092 360.004 C 199.122 360.806,198.940 361.525,198.685 361.610 C 198.431 361.694,198.223 361.948,198.223 362.174 C 198.223 362.409,198.495 362.359,198.860 362.056 C 199.210 361.766,200.118 361.581,200.878 361.647 C 201.871 361.733,202.178 361.633,201.969 361.294 C 201.751 360.942,202.083 360.890,203.271 361.091 C 204.546 361.307,204.940 361.226,205.240 360.689 C 205.495 360.233,205.705 360.161,205.892 360.463 C 206.043 360.708,206.345 360.908,206.562 360.908 C 206.779 360.908,206.863 360.757,206.749 360.573 C 206.635 360.388,207.380 360.309,208.404 360.398 C 209.428 360.487,211.688 360.277,213.425 359.933 C 215.163 359.589,217.086 359.316,217.699 359.326 C 218.312 359.337,218.729 359.209,218.625 359.041 C 218.522 358.873,219.333 358.709,220.426 358.675 C 221.520 358.641,222.525 358.463,222.659 358.280 C 222.793 358.097,223.613 357.908,224.482 357.862 C 226.745 357.740,230.602 356.856,230.602 356.460 C 230.602 356.275,230.784 356.236,231.007 356.373 C 231.510 356.684,233.829 356.205,233.602 355.837 C 233.511 355.689,234.410 355.536,235.601 355.496 C 236.792 355.455,238.420 355.199,239.219 354.926 C 240.018 354.654,240.911 354.478,241.204 354.537 C 241.538 354.603,241.625 354.461,241.436 354.155 C 241.227 353.817,241.331 353.742,241.776 353.913 C 242.129 354.048,243.357 353.890,244.506 353.561 C 245.654 353.232,246.909 352.963,247.294 352.963 C 247.679 352.963,247.902 352.815,247.790 352.634 C 247.678 352.453,248.074 352.294,248.670 352.280 C 250.825 352.229,251.149 352.168,250.953 351.851 C 250.460 351.054,260.974 350.594,265.252 351.226 C 266.392 351.394,267.325 351.687,267.325 351.876 C 267.325 352.066,267.858 352.221,268.509 352.221 C 269.161 352.221,269.695 352.354,269.697 352.517 C 269.701 352.935,271.667 353.799,272.635 353.809 C 273.081 353.814,273.889 354.166,274.432 354.590 C 274.975 355.015,275.731 355.366,276.111 355.371 C 276.491 355.376,276.802 355.558,276.802 355.775 C 276.802 355.992,277.142 356.170,277.558 356.170 C 277.975 356.170,278.374 356.303,278.447 356.466 C 278.626 356.869,283.502 359.329,284.122 359.329 C 284.395 359.329,285.632 359.861,286.869 360.513 C 288.107 361.164,289.254 361.614,289.418 361.512 C 289.582 361.411,290.053 361.584,290.465 361.895 C 290.877 362.207,291.507 362.468,291.865 362.475 C 292.223 362.482,293.543 363.028,294.798 363.688 C 296.052 364.348,297.309 364.800,297.590 364.692 C 297.871 364.584,298.336 364.710,298.622 364.972 C 299.498 365.775,300.840 366.436,301.594 366.436 C 301.988 366.436,302.516 366.642,302.767 366.893 C 303.113 367.240,303.361 367.237,303.787 366.883 C 304.231 366.515,304.401 366.549,304.592 367.046 C 304.759 367.482,305.092 367.593,305.674 367.408 C 306.241 367.229,306.427 367.284,306.245 367.579 C 306.056 367.885,306.990 368.016,309.378 368.016 C 311.277 368.016,312.685 367.860,312.563 367.663 C 312.443 367.469,312.743 367.302,313.231 367.292 C 315.400 367.248,317.772 366.356,318.118 365.455 C 318.244 365.126,318.573 364.857,318.849 364.857 C 319.751 364.857,320.425 363.719,319.689 363.437 C 319.339 363.303,319.052 362.967,319.052 362.691 C 319.052 362.155,316.939 361.154,312.277 359.483 C 309.521 358.496,304.234 356.181,297.730 353.115 C 278.022 343.826,268.499 341.222,257.848 342.209 " stroke="none" fill="#3b0405" fill-rule="evenodd"></path></g></svg>