<?xml version="1.0" standalone="no"?>
<!DOCTYPE svg PUBLIC "-//W3C//DTD SVG 20010904//EN"
 "http://www.w3.org/TR/2001/REC-SVG-20010904/DTD/svg10.dtd">
<svg version="1.0" xmlns="http://www.w3.org/2000/svg"
 width="400.000000pt" height="380.000000pt" viewBox="0 0 450.000000 450.000000"
 preserveAspectRatio="xMidYMid meet">

<g transform="translate(-50.000000,520.000000) scale(0.100000,-0.100000)"
fill="#000000" stroke="none">
<path d="M2785 5033 c-11 -3 -23 -9 -26 -14 -3 -5 -19 -4 -38 2 -69 24 -407
-33 -487 -82 -17 -10 -45 -19 -61 -19 -16 0 -44 -11 -63 -25 -19 -14 -41 -25
-50 -25 -8 0 -25 -6 -36 -14 -11 -8 -53 -24 -94 -37 -41 -12 -88 -31 -105 -43
-16 -12 -42 -28 -57 -36 -64 -35 -214 -138 -262 -181 -57 -50 -137 -134 -236
-252 -98 -116 -110 -133 -110 -161 0 -19 -7 -29 -24 -36 -21 -7 -79 -75 -111
-129 -4 -7 -18 -53 -30 -102 -19 -72 -32 -101 -78 -164 -31 -42 -59 -92 -63
-111 -3 -19 -10 -37 -15 -40 -5 -3 -7 -9 -5 -13 3 -4 0 -27 -5 -52 -6 -24 -26
-118 -45 -209 -18 -91 -46 -207 -60 -258 l-26 -92 16 -108 c9 -59 19 -138 22
-177 3 -38 15 -94 25 -123 11 -29 23 -70 29 -90 5 -20 20 -68 34 -107 14 -38
25 -78 26 -87 0 -10 2 -18 4 -18 2 0 33 16 68 36 113 64 381 192 467 223 l85
31 85 -15 c103 -18 139 -18 166 -2 30 18 30 56 0 67 -14 5 -25 17 -25 28 0 10
-9 27 -20 37 -11 10 -23 33 -26 52 -4 19 -13 37 -20 40 -22 8 -16 28 16 56 17
15 30 34 30 43 0 8 13 26 28 39 18 15 32 40 39 70 10 43 9 48 -12 68 -13 12
-35 50 -49 84 -24 59 -25 63 -10 99 13 30 13 46 5 80 -15 59 -14 89 4 104 8 7
15 20 15 29 0 10 11 28 25 41 33 31 42 94 21 145 -13 31 -14 49 -6 94 5 30 10
74 10 97 0 48 24 112 45 121 35 13 10 72 -116 270 -44 69 -78 127 -77 128 8 8
51 8 121 1 61 -6 77 -11 73 -22 -7 -19 14 -18 66 5 29 12 53 33 71 60 26 39
31 42 68 40 32 -3 44 1 62 22 27 33 80 69 99 69 8 0 42 22 76 49 68 55 65 54
174 75 91 19 124 20 133 5 5 -7 16 -2 32 13 23 21 26 22 37 6 19 -26 19 -134
0 -170 -15 -29 -15 -35 2 -84 14 -42 15 -58 6 -78 -14 -32 -4 -67 42 -136 20
-30 39 -62 41 -72 3 -9 18 -21 33 -27 40 -17 91 -54 92 -68 1 -27 44 -43 121
-43 65 0 82 -4 113 -25 30 -20 45 -24 72 -19 27 5 34 3 34 -10 0 -17 54 -70
73 -71 7 -1 30 -10 52 -20 22 -10 52 -17 68 -16 18 1 30 -5 34 -16 3 -10 20
-33 36 -52 31 -36 33 -37 167 -28 28 1 50 -3 59 -11 25 -24 69 -6 261 105 102
59 264 148 360 198 96 51 212 118 258 151 l83 59 -26 22 c-14 13 -25 33 -25
48 0 14 -9 33 -21 43 -11 9 -48 43 -81 76 -34 32 -76 65 -94 72 -18 8 -38 24
-45 36 -17 35 -73 81 -199 166 -63 42 -134 91 -158 109 -24 18 -56 36 -70 39
-15 4 -70 29 -123 55 -52 27 -102 49 -109 49 -8 0 -23 9 -35 20 -12 11 -46 24
-81 29 -78 13 -152 30 -189 43 -16 6 -66 15 -110 19 -44 4 -98 11 -120 16 -23
5 -54 5 -73 0 -21 -5 -45 -4 -64 2 -31 11 -175 13 -213 4z"/>
<path d="M3096 3855 c-17 -13 -16 -17 25 -92 41 -75 39 -81 -11 -33 -90 85
-85 83 -119 66 -17 -9 -31 -20 -31 -25 0 -14 151 -281 159 -281 4 0 15 6 25
13 17 13 15 19 -32 102 -28 49 -49 91 -46 94 2 3 40 -30 83 -73 74 -74 79 -77
104 -65 15 7 27 16 27 21 0 13 -152 288 -159 288 -3 0 -14 -7 -25 -15z"/>
<path d="M4284 3782 c-45 -25 -80 -51 -78 -56 2 -6 20 -146 39 -310 19 -165
37 -301 39 -304 3 -2 25 8 50 23 l46 27 -7 56 c-13 106 -16 100 75 149 l83 45
59 -51 59 -51 111 61 c61 34 108 65 103 69 -15 14 -494 390 -496 389 -1 0 -39
-21 -83 -47z m145 -285 l23 -26 -50 -25 -50 -25 -6 22 c-3 13 -8 49 -12 82
l-7 59 39 -31 c21 -17 50 -42 63 -56z"/>
<path d="M2843 3714 c-35 -19 -63 -39 -63 -43 0 -12 151 -281 158 -281 5 0
133 68 140 75 2 2 -1 13 -8 24 l-11 21 -45 -26 c-50 -29 -48 -30 -80 29 -14
27 -14 28 21 48 39 23 42 31 20 49 -12 10 -20 9 -40 -4 -35 -23 -42 -21 -64
23 l-20 39 27 11 c44 19 63 37 56 55 -9 23 -21 20 -91 -20z"/>
<path d="M3852 3542 c-56 -30 -101 -58 -100 -62 2 -3 65 -119 142 -258 l139
-252 96 51 c53 28 100 55 104 59 5 4 -248 478 -277 517 -1 1 -47 -24 -104 -55z"/>
<path d="M2580 3572 c-19 -11 -40 -33 -47 -50 -12 -29 -10 -37 35 -122 61
-118 81 -140 128 -140 28 0 44 8 70 34 19 19 34 42 34 53 0 16 -99 206 -118
225 -18 18 -68 18 -102 0z m110 -135 c51 -91 55 -112 24 -124 -21 -8 -33 7
-88 109 -42 78 -45 88 -31 102 9 8 22 13 30 10 8 -3 37 -47 65 -97z"/>
<path d="M2435 3488 c-11 -6 -21 -12 -23 -13 -2 -2 10 -27 27 -57 17 -30 31
-59 31 -65 0 -5 -12 -15 -27 -22 -30 -14 -29 -14 -68 61 -24 45 -27 47 -50 36
-14 -6 -25 -16 -25 -21 0 -8 122 -235 149 -276 8 -12 13 -12 35 2 l25 17 -34
61 c-19 33 -35 62 -35 64 0 5 61 28 64 24 2 -2 18 -30 36 -61 31 -57 32 -57
56 -42 13 9 24 19 24 22 0 10 -154 282 -159 282 -3 0 -15 -6 -26 -12z"/>
<path d="M3675 3444 c-22 -13 -43 -25 -47 -26 -3 -2 7 -91 23 -198 16 -107 29
-199 29 -203 0 -8 -277 236 -291 256 -4 5 -57 -19 -118 -53 -62 -35 -108 -66
-104 -70 125 -112 451 -394 459 -397 17 -6 184 89 184 105 0 15 -91 607 -93
608 -1 0 -20 -10 -42 -22z"/>
<path d="M2195 3356 c-45 -19 -65 -44 -65 -78 0 -31 79 -187 112 -220 37 -37
126 -12 148 43 9 21 8 34 -4 63 -16 38 -25 42 -57 26 -19 -11 -19 -12 -2 -40
16 -28 16 -31 1 -46 -9 -9 -23 -14 -31 -11 -20 7 -109 173 -105 195 5 26 39
27 58 2 14 -19 20 -21 38 -11 29 15 28 27 -7 62 -33 32 -43 34 -86 15z"/>
<path d="M4945 3303 c-23 -5 -91 -76 -100 -102 -3 -10 -46 -51 -97 -92 -50
-41 -138 -113 -196 -161 -57 -49 -107 -88 -111 -88 -4 0 -21 -13 -39 -30 -18
-16 -49 -34 -70 -39 -38 -11 -81 -36 -72 -43 46 -34 91 -59 98 -54 13 8 36
-23 51 -69 20 -64 43 -115 53 -115 4 0 8 -4 8 -10 0 -5 -6 -10 -13 -10 -18 0
-69 -141 -56 -156 7 -8 5 -16 -4 -26 -7 -7 -31 -48 -52 -90 l-39 -78 27 -28
c28 -30 35 -52 15 -52 -6 0 -20 -7 -30 -17 -23 -20 -26 -17 -30 31 -2 38 -6
42 -107 108 l-104 68 -110 0 c-66 0 -133 -6 -169 -16 -33 -8 -121 -25 -196
-38 l-137 -23 -22 -55 c-12 -31 -40 -82 -63 -114 -36 -52 -40 -63 -40 -120 0
-44 -12 -100 -41 -195 -23 -74 -43 -137 -46 -141 -7 -13 -43 16 -43 34 0 16
-11 17 -127 14 l-128 -4 -37 -74 c-21 -40 -38 -82 -38 -93 0 -11 -4 -26 -9
-34 -7 -10 -12 -5 -24 20 -25 58 -42 103 -42 117 0 24 -76 42 -174 42 -86 0
-97 2 -120 24 -15 13 -38 31 -53 41 l-27 17 -7 -40 c-6 -37 -10 -42 -58 -60
-37 -14 -52 -25 -54 -41 -2 -12 -17 -28 -33 -37 -16 -8 -27 -19 -24 -24 11
-19 -48 -62 -101 -73 -78 -16 -105 -2 -103 56 1 24 -1 49 -5 56 -4 6 -9 26
-11 43 -5 38 -11 44 -29 29 -7 -6 -79 -42 -159 -80 l-146 -68 20 -32 c23 -38
119 -101 265 -175 443 -224 916 -281 1334 -162 47 13 141 41 210 61 69 21 134
40 144 43 25 7 173 97 307 186 115 77 279 220 314 276 12 19 46 60 75 90 28
30 83 100 123 155 39 55 104 144 144 198 40 54 73 104 73 111 0 6 16 50 36 96
34 81 36 89 30 165 -5 63 -2 97 14 160 33 129 42 200 49 385 l7 175 23 -49
c23 -48 23 -49 6 -103 -18 -57 -16 -136 6 -236 9 -39 8 -55 -6 -90 -14 -34
-16 -59 -11 -127 8 -101 -13 -270 -44 -357 -11 -32 -25 -72 -31 -90 -5 -18
-23 -46 -39 -62 -17 -17 -30 -40 -30 -54 0 -24 -18 -44 -84 -90 -15 -10 -31
-37 -40 -66 -8 -27 -26 -66 -39 -87 -14 -22 -30 -57 -36 -80 -7 -25 -22 -48
-41 -62 -16 -13 -30 -30 -30 -38 0 -9 -16 -34 -35 -57 -19 -22 -35 -47 -35
-54 0 -7 -5 -13 -11 -13 -17 0 -87 -58 -94 -78 -3 -9 -34 -38 -68 -65 -34 -26
-114 -88 -177 -138 -63 -50 -124 -94 -135 -99 -11 -4 -45 -20 -75 -34 -30 -15
-91 -37 -135 -50 -44 -13 -146 -45 -227 -70 -81 -25 -155 -46 -165 -46 -10 0
-36 -6 -58 -14 -22 -7 -103 -16 -180 -20 -126 -5 -158 -3 -320 24 -226 37
-249 38 -271 5 -16 -25 -16 -26 20 -61 20 -19 36 -39 36 -44 0 -6 9 -10 20
-10 12 0 33 -6 48 -14 69 -34 274 -41 517 -16 66 6 158 15 205 19 56 5 100 15
127 29 23 12 54 22 68 22 14 0 45 9 68 19 23 11 59 22 80 26 22 4 61 23 89 41
60 41 188 106 241 123 20 7 50 25 65 40 15 16 37 31 49 35 11 4 48 33 82 66
33 33 66 60 72 60 16 0 147 108 160 131 5 11 35 37 65 60 31 22 70 62 87 87
18 25 51 66 74 91 24 25 43 51 43 57 0 6 16 32 36 59 54 70 114 192 114 232 0
37 25 93 46 106 8 4 14 17 14 28 0 17 23 79 65 174 23 52 66 242 75 334 5 49
14 99 19 113 15 41 6 436 -12 484 -9 26 -13 58 -10 82 9 64 -2 92 -35 91 -15
-1 -36 -3 -47 -6z"/>
<path d="M1993 3244 c-35 -20 -63 -40 -63 -45 0 -15 147 -273 158 -277 11 -3
142 67 142 76 0 4 -5 14 -10 22 -8 12 -16 11 -56 -8 -51 -25 -49 -26 -79 30
-14 25 -13 27 20 47 38 22 42 32 20 51 -11 9 -19 8 -37 -4 -32 -23 -45 -20
-63 14 -22 42 -20 47 26 70 28 15 39 26 35 36 -3 9 -6 18 -6 20 0 11 -31 0
-87 -32z"/>
<path d="M1855 3168 c-11 -6 -22 -12 -23 -14 -2 -1 11 -30 30 -64 32 -59 33
-61 14 -75 -33 -25 -44 -18 -76 45 -27 53 -33 59 -50 50 -10 -5 -22 -15 -25
-20 -3 -6 25 -67 64 -138 94 -169 84 -156 112 -142 13 7 25 14 27 15 1 1 -13
30 -32 63 l-35 62 22 15 c12 8 26 15 32 15 6 0 25 -27 43 -60 31 -56 34 -59
57 -48 14 6 25 16 25 21 0 13 -152 287 -159 287 -3 0 -15 -6 -26 -12z"/>
<path d="M3023 3083 l-102 -57 18 -31 c20 -32 216 -386 248 -447 l20 -36 101
54 c56 31 102 59 102 63 0 4 -61 116 -135 249 -74 133 -135 247 -135 252 0 16
-10 12 -117 -47z"/>
<path d="M2620 2860 c-47 -27 -93 -53 -102 -59 -16 -10 -16 -15 11 -59 16 -26
79 -139 141 -252 62 -113 114 -207 116 -209 2 -2 319 170 362 198 11 7 10 16
-7 49 l-21 40 -77 -44 c-43 -24 -82 -44 -88 -44 -5 0 -63 97 -129 215 -65 118
-119 215 -120 214 0 0 -39 -23 -86 -49z"/>
<path d="M2199 2626 c-75 -26 -189 -98 -236 -147 -110 -118 -104 -282 16 -412
115 -124 287 -114 486 28 76 54 121 112 141 183 20 67 13 118 -25 199 -74 156
-211 210 -382 149z m87 -150 c60 -63 124 -195 124 -256 0 -42 -4 -52 -35 -79
-84 -73 -170 -18 -255 161 -42 88 -41 149 1 189 25 23 40 29 77 29 41 0 50 -5
88 -44z"/>
<path d="M1633 2300 c-18 -4 -111 -51 -206 -104 l-175 -96 142 -255 c77 -140
144 -255 148 -255 16 0 335 184 361 209 39 35 57 73 57 116 0 86 -61 155 -136
155 l-44 0 21 40 c26 49 21 88 -16 137 -39 50 -90 68 -152 53z m-48 -166 c13
-14 29 -42 36 -61 10 -31 9 -38 -10 -56 -25 -26 -32 -20 -80 66 l-31 57 22 10
c34 13 37 12 63 -16z m122 -216 c47 -52 57 -110 23 -128 -11 -6 -24 -9 -28 -6
-4 2 -23 34 -42 70 -30 57 -33 68 -20 76 24 16 45 12 67 -12z"/>
<path d="M1467 1295 c-26 -12 -50 -25 -53 -28 -3 -3 14 -18 38 -35 24 -16 79
-62 123 -101 77 -70 200 -141 243 -141 45 0 56 56 19 94 -13 13 -53 33 -90 45
-56 19 -75 31 -115 77 -26 29 -51 54 -56 54 -5 0 -21 13 -35 29 l-26 29 -48
-23z"/>
</g>
</svg>
