<?xml version="1.0" encoding="utf-8"?>
<!-- Svg Vector Icons : http://www.onlinewebfonts.com/icon -->
<!DOCTYPE svg PUBLIC "-//W3C//DTD SVG 1.1//EN" "http://www.w3.org/Graphics/SVG/1.1/DTD/svg11.dtd">
<svg version="1.1" xmlns="http://www.w3.org/2000/svg" xmlns:xlink="http://www.w3.org/1999/xlink" x="0px" y="0px" viewBox="0 0 1000 1000" enable-background="new 0 0 1000 1000" xml:space="preserve">
<metadata> Svg Vector Icons : http://www.onlinewebfonts.com/icon </metadata>
<g><path d="M958.1,199.4c-9.3,12.1-22.8,10.4-28.9-2.7c-7.2-15.6-22.9-15.2-35.2-15.1c-15.5,0.2-22-7.5-28.9-17.4c-8-11.6-16.3-23-24.4-34.6c-7.4-10.5-16.7-17.1-30.9-14.8c-2.7,0.4-5.8,0-7.1-3.2h-10.4c-5,6.4-12.6,5.6-19.7,7c-9.6,1.9-22.6,10.6-16,17.2c11.2,11.1,4,17.9,0.7,26.7c-2.2,6-5.6,12-5.9,18.1c-0.9,17.8-6.9,23.9-25.5,22.6c-3.3-0.2-6.9-2.6-8.6,1.4c-5,11.9-11.7,23.4-11.5,36.7c0.1,6.5,3.6,8.6,10,5.2c9.5-5.1,20.6-2,31.1-5.8c11.7-4.2,20,7.2,26.5,15.8c3.7,4.9-0.6,6.4-5.4,6.5c-22.2,0.4-38.7,9.5-49.5,28.2c-2.7,4.6-7.1,8.5-14.1,7.9c-3.1-0.3-7.7-1.4-8.9,2.7c-5.1,17.5-16.6,13.6-29,8.3c-4.9-2.1-10.5-2.9-14.1,1.9c-3.2,4.2-5.5,9.4-2.8,14.8c2.1,4.3,4.9,8.2,7.6,12.6c-5.1,3.1-11.7,2.7-14.8,7.9c-10.5,17.9-27.9,21.8-47.6,20.7c-9.9-0.6-20.4-0.8-28,5.5c-18.2,14.9-36.7,9.1-55.6,2.6c-15.1-5.2-26.7-18.8-45.7-14.9c-20.1,4.1-39.4-3.7-59.1-6.4c-3-0.4-5-0.8-6.1-4.2c-5.2-16.6-15.4-29.4-30.3-40c-9.6-6.8-18-12.1-30.5-11.9c-21.4,0.3-23.6-3.9-14-22.4c8.4-16.4-0.4-39.2-18.4-46.5c-8.3-3.4-13.4-9.9-13.7-17.3c-0.6-14-15.2-10.3-16.5-8.2c-5.7,8.6-15,9.1-22.8,13c-2.5,1.2-4,5.1-5,8.1c-7.2,19.4-7.4,20-27.5,10c-9.6-4.8-14.8-4.6-19.3,5.6c-7.5,17-16.5,32.8-41.4,25.3c-4.5-1.4-13-0.8-11.7,5.5c3.5,18.1,1.5,32.8-11,48.7c-5.9,7.6-9.1,10.6-18.2,11.6c-18.4,2-38.1,0.5-53,14.6c-2.7,2.6-7.2,2.5-9.4,0c-10.2-11.6-21.8-3.1-31.6-0.9c-9.8,2.2-11.6,13.3-15.3,21.7c-1.7,3.8,0.8,4.9,2.8,6.2c16.2,11.1,17.3,24.8,1.8,39.2c10.9,0.6,17.7,9.1,16.7,15.4c-2.5,15.5,9.5,20.2,18.4,26.4c6.7,4.6,8.5,9.3,11.1,16.2c3.5,9.7,6.4,17.5,5.3,28.7c-1.6,16.2,1.3,16.4-11,23.6c-0.5,0.3-0.8,0.8-1.1,1.2c-3.5,4,0.3,32.5,6,33.9c17.3,4.2,19.5,33.3,44.6,23.9c3.3-1.3,3.4,3.6,5.1,5.4c17.7,18.2,34.8,37,54.4,53.4c12.8,10.7,28.8,12.9,44.5,12.7c12-0.1,18.8,2.4,20.4,14c10.6-1.7,11.2-16.5,23.4-16.1c14.2,0.4,34.9,17.4,38.2,32.5c1.4,6.3,5,5.8,9.6,6.3c19.7,2.2,32.6-11.4,47.7-19.1c11.7-5.9,21.5-7.7,32.4-1c6.2,3.8,11.1,7.2,16.8-1.4c5.1-7.6,11.4-8.5,12.9,2.8c0.6,4.4,3.7,6.5,6,9.5c8.2,10.4,6,34.6-4.3,42.6c-12,9.3-19.9,19.8-15,36c13.4-5.7,25.4-8.4,25.3,12.1c0,2.2,1.8,7.6,7.5,7.4c3.4-0.2,5.2,1.5,3.8,5.2c-2.5,6.5-13,14.4,3.6,17.8c8,1.7,11.2,14.2,22.2,9.4c4.3-1.9,7.8-1.8,9.6,2.8c1.7,4.5,4.6,8.9,9.7,6.9c6.1-2.4-0.5-7.9,1.4-12.5c2-4.9-4.3-13.6,3.4-15.8c10.4-2.9,22.6-5.4,32.5-2.8c6.5,1.7,11.9,1.7,16.7,0.5c-21.2-32.3-33.6-70.4-33.6-111.4c0-115.2,96.8-208.7,216.2-208.7c37.5,0,72.8,9.3,103.6,25.5c9.7-13.4,18.6-27.5,36.9-32.6c5.3-1.5,5.4-5,5.4-8.9c0-3.7-2.6-4.5-5.7-4.5c-16.9,0.2-35.9-8-47.7,12.1c-4.3,7.3-11.9,3.8-11.6-2.4c0.5-13.4-7-14-17.3-13.2c-5.8,0.4-10.4-1.6-11-7.7c-0.3-3-1.5-7.1,3-8.3c24.1-6.3,33.6-26.1,45.3-43.8c3.9-5.8,9.4-7.7,14.4-5.2c4.3,2.2,8.2,7.1,4.2,13.5c-2.5,4-4.4,8.9-4.9,13.6c-0.6,5.8-1.4,15.7,1.3,16.9c6.8,3,9.7-4.4,13.1-9.4c3.3-5,7.5-9.7,13.5-12.2c23.1-9.7,34-29.8,46.2-48.7c3.2-4.9,4.6-9.9,12-3.4c7.3,6.5,18-2.2,16.8-4.2c-5.8-9.6,3.3-10.5,7.2-13.1c8.8-5.7,12.8-14.9,24.3-20c17-7.7,4.3-24.8-0.1-37.4c-4.5-12.8-2.3-20.8,13-20.9c6.4,0,8.8-3.6,12.3-6.9v-75.7C978.3,181.4,966.8,188.1,958.1,199.4L958.1,199.4z M761.1,500.1v161.8h163.5C924.6,661.9,924.6,500.1,761.1,500.1z M728.4,532.4h-7.2c-3.2-0.4-6.4-1-9.7-1s-6.4,0.8-9.7,1h-6.1v0.6c-92.1,8-164.5,83.7-164.5,176.8c0,98.5,80.7,178.4,180.3,178.4c93.8,0,169.9-71.1,178.6-161.7h1.8v-32.4H728.4L728.4,532.4L728.4,532.4z M855.8,726.6c-8.5,71.9-69.5,127.8-144.4,127.8c-80.7,0-146.1-64.7-146.1-144.6c0-74.5,57.1-135,130.3-143v159.7L855.8,726.6L855.8,726.6z"/></g>
</svg>