<?xml version="1.0" encoding="utf-8"?>
<!-- Svg Vector Icons : http://www.onlinewebfonts.com/icon -->
<!DOCTYPE svg PUBLIC "-//W3C//DTD SVG 1.1//EN" "http://www.w3.org/Graphics/SVG/1.1/DTD/svg11.dtd">
<svg version="1.1" xmlns="http://www.w3.org/2000/svg" xmlns:xlink="http://www.w3.org/1999/xlink" x="0px" y="0px" viewBox="0 0 1000 1000" enable-background="new 0 0 1000 1000" xml:space="preserve">
<metadata> Svg Vector Icons : http://www.onlinewebfonts.com/icon </metadata>
<g><path d="M983.4,300.4c-23.9-112.3-122-191.2-236.4-191.2c-45,0-90.1-1.1-135,0.5c-22,0.7-44.9,3.5-65.7,10.3c-80,26.1-131,82.4-159.8,160.1c-2.8,7.4-6,9.9-13.8,9.8c-24.9-0.5-49.8-0.5-74.6-0.1c-27.1,0.4-54.6-1.6-81,2.9C115,309.9,49.5,371.2,20.9,469.1c-28,96-1.5,178.2,74.1,244c29,25.3,62.6,42.8,99.5,55.1c0,25.5,0,50,0,74.5c0,9.9-0.3,19.8,0.3,29.6c1.2,18,12.6,23.8,27.6,13.8c5.7-3.8,10.8-8.8,15.1-14.1c25.3-30.8,50.5-61.8,75.4-92.9c4.5-5.6,9.1-8.4,16.5-8.2c19.7,0.5,39.7,1.6,59.2-0.2c22.8-2.1,46.3-4,67.6-11.5c77.6-27.2,126.8-83.7,155.9-159c2.8-7.2,5.8-10.5,13.9-10c11.7,0.8,23.4,0.6,35.1,0.1c7.2-0.3,12.2,1.9,17,7.4c27.9,31.5,56,62.8,84.4,93.8c6.6,7.2,14,14.1,22,19.6c13,9,20.8,4.8,21.3-10.9c0.5-15.4,0.2-30.7,0.2-46.1c0-20.4,0-40.9,0-61.4c3.1-0.6,5.2-1.3,7.3-1.5c38.6-3.5,71-20.5,97.5-47.6C977.8,475.6,1003.4,394.4,983.4,300.4z M908.9,444c-25.6,51.2-70.1,75.6-124.5,84.7c-12.2,2-24.6,2.5-39.2,3.9c0,18,0,35.8,0,56.2c-19-18-36.1-33.8-52.6-50.2c-5.9-5.9-12-8.3-20.3-7.9c-14.2,0.6-28.5,0.2-43.9,0.2c4.7-131.7-66.3-202.6-187.9-233.3c11.2-28.8,28.4-53,50.4-73.7c38.1-35.8,82.9-55.2,135.8-54.6c47.5,0.6,95.2-1.3,142.6,1.5c80.4,4.7,146.1,68,157.1,148.1C932.3,362.1,928.7,404.4,908.9,444z"/></g>
</svg>