<?xml version="1.0" encoding="utf-8"?>
<!-- Svg Vector Icons : http://www.onlinewebfonts.com/icon -->
<!DOCTYPE svg PUBLIC "-//W3C//DTD SVG 1.1//EN" "http://www.w3.org/Graphics/SVG/1.1/DTD/svg11.dtd">
<svg version="1.1" xmlns="http://www.w3.org/2000/svg" xmlns:xlink="http://www.w3.org/1999/xlink" x="0px" y="0px" viewBox="0 0 1000 1000" enable-background="new 0 0 1000 1000" xml:space="preserve">
<metadata> Svg Vector Icons : http://www.onlinewebfonts.com/icon </metadata>
<g><path d="M570,422.6h282.5v49.1H570V422.6L570,422.6z"/><path d="M656,783.7l-2.5-2.5H98.4c-22.1,0-39.3-17.2-39.3-39.3V226.1c0-22.1,17.2-41.8,39.3-41.8h790.9c22.1,0,39.3,17.2,39.3,39.3v309.5l2.5,2.5c12.3,7.4,24.6,17.2,34.4,29.5l9.8,12.3V213.9c0-41.8-34.4-76.1-76.1-76.1h-813c-41.8,0-76.1,34.4-76.1,76.1v540.3c0,41.8,34.4,76.1,76.1,76.1h601.8l-7.4-9.8C670.7,808.2,663.3,796,656,783.7L656,783.7z"/><path d="M570,530.7h83.5v49.1H570V530.7L570,530.7z"/><path d="M570,317h282.5v49.1H570V317L570,317z"/><path d="M827.9,538.1c-90.9,0-162.1,71.2-162.1,162.1c0,88.4,73.7,162.1,162.1,162.1c90.9,0,162.1-71.2,162.1-162.1S916.3,538.1,827.9,538.1L827.9,538.1z M825.4,798.4c-7.4,7.4-22.1,7.4-31.9,0l-68.8-68.8c-7.4-7.4-7.4-22.1,0-29.5c7.4-7.4,22.1-7.4,31.9,0l54,54l105.6-103.2c7.4-7.4,22.1-7.4,31.9,0c7.4,7.4,7.4,22.1,0,29.5L825.4,798.4L825.4,798.4z"/><path d="M139.6,484.2l20.8,11.2c0,0,9.5,5.7,14.5-4.9l51.6-112.3c0,0,4.9-9.6-3.1-14.1l-22.7-11.6c0,0-7-4.1-11.6,4.5c-0.1,3.5-52.9,114.4-52.9,114.4S132.7,480.5,139.6,484.2L139.6,484.2z M479.5,495.6l21.3-10.2c0,0,10.2-4.3,5.3-14.9l-53-111.5c0,0-4.2-9.9-12.6-6.2l-22.7,11.5c0,0-7.4,3.2-3.8,12.3c2.5,2.3,53.8,114,53.8,114S472.5,499,479.5,495.6L479.5,495.6z M190,495.2l7-15.5l24.6,32.4c0,0,16-3.8,21.6,6.6c0,0,5.3,6.3,3,18.3c0,0,3.3,2.5,3.6,4.1c0,0,11-2.8,17.7,5.4c0,0,6.1,5.1,5.4,14.9c0,0,4.4,2,5.3,4.7c0,0,10.8-2.8,16.1,3.8c0,0,6.4,6.2,5.9,13.6l10.1,7.7c0,0,9.4,0.8,10.9,8.5l9,6.9c0,0,14.4,5.9,15.2-9.1l-33.9-26.9c0,0-4-10.8,8.5-9.1l50.5,37c0,0,8.3,3.7,13.3-4.5c0,0,4.9-7-2-14.7L328,538.9c0,0-4.7-11.3,7.4-10.4l63.7,47c0,0,9,3.7,12.9-3.3c0,0,5.2-7,0-14.3l-70.3-53.4c0,0-4.2-12.8,8.9-9.5l72.5,53.8c0,0,11,3.6,15.9-5.7c0,0,6.2-10-2.1-18.3l-102.6-93.2c0,0-19.1-9.5-30.4,10.4c0,0-2,32.4-36.5,38.3c0,0-23.5-1.9-18.1-18c0,0,6.9-9.5,6.3-29.6c0,0,0.8-14.4,10.4-26.7H229l8.1-17.5h55.8c0,0,22.9-13.5,40.2-12.3c0,0,22.5,1.3,28.6,4.9c0,0,29.8,9.9,43.2,7.6l49.9,107.8l-7.9,18.8c0,0,14.6,15.6,3.8,34.6c-3,6.4-10.7,12.5-23.3,13.1c0,0,1.9,12.8-6.9,20c0,0-6.5,9.3-22.2,6.7c0,0,0.9,11.3-9.5,18.8c0,0-12.4,11.1-31.6-2.4c0,0-3,12.7-18.4,15.3c0,0-11.2,1.8-17.7-4.7c0,0-11.7,22.9-28.3,10c0,0-10.5-9.1-3.1-22c0,0-14.2,23.4-31,5.8c0,0-9.4-7.3-0.7-22.6c0,0-13.4,15.9-28.1,1.5c0,0-10-8.6-2-24.5c0,0-13.7,16.9-29.6,0.8c0,0-6.7-6.4-2.8-20.7l15.4-22L190,495.2L190,495.2z"/></g>
</svg>