<?xml version="1.0" encoding="utf-8"?>
<!-- Svg Vector Icons : http://www.onlinewebfonts.com/icon -->
<!DOCTYPE svg PUBLIC "-//W3C//DTD SVG 1.1//EN" "http://www.w3.org/Graphics/SVG/1.1/DTD/svg11.dtd">
<svg version="1.1" xmlns="http://www.w3.org/2000/svg" xmlns:xlink="http://www.w3.org/1999/xlink" x="0px" y="0px" viewBox="0 0 1000 1000" enable-background="new 0 0 1000 1000" xml:space="preserve">
<metadata> Svg Vector Icons : http://www.onlinewebfonts.com/icon </metadata>
<g><path d="M961,425.6c-1-6.3,3.3-12.2,9.6-13.2c6.3-1,12.2,3.3,13.2,9.6c4.1,25.4,6.2,51.5,6.2,78.1c0,270.6-219.4,490-490,490S10,770.6,10,500S229.4,10,500,10c81.1,0,157.6,19.7,224.9,54.6c5.6,2.9,7.9,9.9,4.9,15.5c-2.9,5.6-9.9,7.9-15.5,4.9c-66.6-34.5-138.7-52-214.3-52C242.5,33.1,33.1,242.5,33.1,500S242.5,966.9,500,966.9c257.5,0,466.9-209.5,466.9-466.9C966.9,475.1,965,450,961,425.6"/><path d="M380.6,456.3l-180.4,116c0,0,189.5,83.7,283.5,244.8c0,0,191.9-327.7,373.7-412.4c0,0-36.6-164.4-12.9-244.8c0,0-210.7,96.3-373.7,476.8L380.6,456.3L380.6,456.3z"/></g>
</svg>